<?xml version="1.0" encoding="utf-8"?>
<!-- Generator: Adobe Illustrator 19.0.0, SVG Export Plug-In . SVG Version: 6.00 Build 0)  -->
<svg version="1.1" id="Layer_1" xmlns="http://www.w3.org/2000/svg" xmlns:xlink="http://www.w3.org/1999/xlink" x="0px" y="0px"
	 viewBox="0 -16.7 850.4 627" style="enable-background:new 0 -16.7 850.4 627;" xml:space="preserve">
<style type="text/css">
	.st0{fill:#C2A572;}
</style>
<g id="XMLID_170_">
	<polygon class="st0" points="370.5,217 366.3,224.1 368,231.5 364.3,238.6 367.7,246.3 366.4,253.6 366.8,261.2 357.3,266.9 
		360.7,275.1 352.8,280.5 357.1,289.3 349.4,294.5 351.8,303 352.2,311.1 342.8,315.1 339.8,321.6 339.3,329.5 334,334.9 
		334.7,343.7 325.1,346.5 326.3,355.8 317.6,358.9 319,368.5 316.7,375.8 308.1,378.8 302.9,384.1 303.1,393.1 296,397 292.9,403.7 
		289.3,410.2 285.7,416.6 282.2,423.1 274.5,426.2 265.9,428.2 263.8,436 256.9,439.4 251.8,444.5 250.5,453.5 245.5,458.8 
		235.6,458.7 233.4,467 230.2,474.5 224.3,478.8 217.2,481.6 211.6,486.2 207.7,493.2 196.1,489.5 191.8,495.8 189.1,504.7 
		178.1,501.3 175.4,510.3 169.6,514.8 161,514.6 157.4,522.6 150.6,525.2 144.3,528.9 135.3,527.7 133.4,539 122.9,534.9 
		120.7,546.1 110.7,542.7 104.8,547 101,555.4 90.8,551.3 86.4,558 79.3,560 76.5,568.6 68.1,567.6 62.3,575.2 54.2,571.2 
		46.8,568.9 43.3,561.9 42.3,555.3 45.8,550.2 46.1,540 54.2,539.2 59.8,534.6 69.1,537.3 74.8,533.1 80.7,529.1 85.1,522.5 
		93,522.4 100,520.5 106,516.9 112.5,514 119.4,512 121.3,500.6 128.6,499.4 134.7,495.9 142.5,495.3 148.8,491.8 152.2,483.4 
		161.2,484.4 165.4,477.5 170.5,472.3 178.8,471.7 182.3,464.2 190.5,463.3 197.7,460.8 200.3,452.5 210.2,453.2 215.3,447.9 
		216,437.8 222.7,434.5 227.7,429.4 231.6,423.2 236.5,417.9 246.2,417.1 249.1,410 254.4,405 255.9,396.9 262.4,392.9 265,385.9 
		272.2,382.2 278.8,378 280,370 283.3,363.6 290.3,359.5 292.2,352.1 294.8,345.3 297.8,338.7 302.4,333 309.6,328.6 306.7,319 
		309.7,312.5 318.3,308.5 318.3,300.6 318.7,292.9 320.2,285.8 327.9,281.1 331.3,274.6 330.6,266.9 334.3,260.3 335,253.1 
		328.4,245 336,238.7 331.2,231.3 332.3,224.3 332,217.3 336.8,209.9 330.5,203.4 331.8,196.1 333.4,188.5 332.2,181.4 325.9,175.7 
		325.2,168.5 327.5,160 320.6,155 316.5,149.1 310.9,144.1 312,135.2 307.6,129.5 299.8,126.5 293.9,122.4 293.1,113.6 284.3,112.5 
		285.4,100.6 277.6,98.7 270.1,97 266.8,88.7 261,84.1 253.1,83.6 244,87.2 240.5,75.7 230.8,83.6 226.6,73.1 218.8,74.4 212.5,77 
		208.9,81.3 207.3,85.4 205.1,90.5 209.2,95.8 214.7,101 218.6,107.5 219.4,115 217.7,122.6 221.2,129.3 214.7,136.5 218.8,143.4 
		219.5,150.6 220.3,157.9 212.6,163.5 211.8,170.3 209.1,176.7 214.8,186.2 210.1,192.1 208.1,199.2 202.5,204.3 196.2,208.5 
		194.7,216.6 183.9,215.1 179.3,219.4 177.1,230.5 167.4,227.6 164,237.1 155,235 147.9,237.1 142.8,243.5 137,248.8 128.5,247 
		120.8,245.7 114.3,247.2 107.7,245.9 100.7,248.7 93.8,247.7 85.7,248.5 82.7,239 74.4,238.8 70.1,232.8 60.4,233 59,223.9 
		56.3,216.3 50.2,213 44.6,208.6 38.5,203.4 41.5,195.2 43,188.4 39.9,181.6 43.3,175.1 39,167.1 41.8,160.5 41.1,152.4 41.6,147.6 
		51.2,140.7 52,133.7 49.8,126.6 45.9,118.8 54.8,113.6 52,105.4 55.5,99.2 56.7,91.2 63.8,87.5 72.6,87.1 75,78.2 79.8,72 
		85.5,66.8 96.3,71 100.2,62.6 108.6,63.3 115.9,62.1 122.6,59.6 128.2,52.9 136.4,55.1 142.2,47.4 149.3,45.3 157.9,52.1 
		164.2,47.1 171.4,46.5 178.7,47.9 185.3,41.1 192.7,45.5 199.8,43.4 207,39.5 213.9,46.8 220.7,48.8 227.7,49.5 234.9,48.4 
		242,49.1 250.1,46.9 256.4,51 261.1,58.2 270.4,55.2 277.4,57.7 281,65.5 286.8,69.7 290.2,76.6 298.4,78.1 300.1,86.3 306.1,90.3 
		310.3,96.2 315.2,101.4 321.3,105.7 323.6,112.9 328.9,118 338.6,120.1 341.5,126.9 340.2,136.2 346.8,140.7 352.7,145.8 
		353.5,153.5 357.8,159.6 360.3,166.5 357.7,175 364.8,180.4 364.6,187.9 363.7,195.4 366.9,202.3 363.6,209.5 	"/>
</g>
<g id="XMLID_169_">
	<polygon class="st0" points="528.2,197.2 521.2,198.1 514.8,195.9 508.3,197.5 501.4,191.6 493.6,197.4 486.1,196.7 479.7,192.4 
		473.3,188.8 471.5,179.3 459,182.3 459.7,172.2 452.3,168.2 455.3,159.7 453,153.7 447.5,147.1 451,140.4 456.7,135.2 457.6,128.6 
		455.9,119.8 459.4,113.6 462.7,107.1 471.6,105.1 474.7,98.2 480.2,93.4 481.2,84.8 488.6,81.5 493.5,76.1 496.9,69.5 504.6,66.5 
		508,59.8 509.2,51.1 521.8,52.9 523.2,44.2 530.6,41.5 531.8,32 542.9,33.9 543.5,23.1 549.3,19.3 559.4,21.5 562.2,13.3 
		569.1,13.9 576.5,16.3 583.5,11.5 591,15.1 598.1,9.9 605.4,8.5 612.7,14.5 619.9,13.3 627.6,6.3 634.5,13.3 641.4,17.1 
		649.4,11.1 656.9,10.2 663.9,13.4 670.1,20 679.1,12.6 685.4,18.3 692.2,21.1 699.3,22.9 705.9,26.2 714,25.7 721.9,26.3 
		728.6,29.6 733.8,35.7 738.5,42.4 743.2,48.4 754.2,45.4 755.9,55.4 761.8,59.7 768.1,63.5 770.9,70.9 779.6,72.4 786.2,76.4 
		784.3,87 791.7,90.6 799.5,94.4 795.1,104.9 798.1,111.2 808.6,114.8 803.1,124.3 804.4,131.2 810.4,137.1 813.2,143.9 
		816.8,150.9 818.2,158.2 815.8,165.7 814.1,172.9 817.3,180.5 808.3,186.7 806,193.5 807.8,201.1 803.1,207.4 802.8,214.7 
		809.1,223.8 800.8,229.1 798.8,236.1 797.2,243.2 800.9,251.7 794.8,257.5 787.9,263 794.2,272.5 783.7,276.7 789.3,286.3 
		786.2,292.9 780.7,298.6 779.1,305.8 774.1,311.6 771.2,318.2 772.4,326.6 768.2,332.7 766.2,339.8 758.5,344.1 759.7,352.8 
		751.3,356.6 745.8,361.7 742.9,368.4 747,379.2 742.9,385.3 730.7,386 726.8,392 722.9,398 719.5,404.3 718.2,412.4 717.1,420.8 
		706.8,421.8 708.5,432.7 701.6,436.4 693.6,438.8 688.3,443.8 686.1,451.8 676.3,452 673.4,459.4 672.5,468.7 666.5,472.8 
		658,474.5 652.5,479.1 645,481.7 644,490.9 634.6,491.5 634.5,501.7 628.2,505.5 621,508.3 614.3,511.6 610.6,518.2 607.7,525.7 
		603.5,531.9 598.7,537.4 593.4,542.3 584.8,543.1 578.4,546.6 570.6,548.1 567,555.2 560.7,558.7 553.6,561 549,566.9 546.1,575.9 
		537.8,576.2 532.2,581.8 522.9,579.7 516.5,584.4 506,585.8 503.3,576.3 503.8,568.5 505.6,563 508,556 511.8,547.8 519.5,546.6 
		529.2,549.5 535.9,546.7 537.1,534.7 545.5,534.7 548.8,526.7 554.9,523.2 564,524.1 566.8,515.5 577.2,517.9 581.4,511.6 
		590,511.1 589.7,499 595.7,495.2 600.3,489.6 606.5,486.1 617.5,488 618.9,478.7 628.1,478.3 631,470.9 633.9,463.6 641.1,460.8 
		646,455.7 651.8,451.3 653.5,443.1 662.1,441.3 668.6,437.6 668.9,428.4 678.2,426.8 675.7,415.6 685.8,414.5 688.5,407.5 
		690.8,400.4 695.5,395.1 704.1,392.3 705.8,384.8 711.6,380.1 711.6,371.6 711.3,363 716.2,357.7 718.5,350.9 723.8,345.8 
		725.7,338.8 730,332.9 741.2,330.6 739.1,321.5 748,317.7 749,310.2 753.2,304.1 747,293.6 754.9,289.1 761.7,284 760.9,275.9 
		758.9,267.5 763.5,261.6 770.2,256.3 765.9,247.2 770.5,241.2 776.5,235.5 778.4,228.5 779.5,221.3 781.6,214.4 777.7,205.9 
		787,200.8 786.3,193.3 783.9,185.9 784,179 787.3,171.9 787.2,164.8 782.3,158.2 778.5,151.8 782.5,143.9 779.6,137.4 782,129.1 
		774.7,124.3 770.7,118.4 770,110.9 763.2,106.7 760.1,100.5 756.9,94.2 751.8,89.4 751.9,79 744.6,76.1 734.1,78.7 731.4,69.9 
		725.8,65.1 720.3,59.7 710.2,65.6 704.6,60.6 697,61.3 690.1,60 685.9,48.3 678.3,49.4 670,53.5 663.8,50.8 656.8,51.7 655.8,58.9 
		653.5,65.2 657.5,71.7 648.8,79.8 654.6,86.6 655.6,93.9 654.2,101.1 652.6,108.2 653.1,115.6 643.9,120.7 651,130.3 648.9,137.5 
		639,140.8 633.8,145.7 633.6,154.1 628.9,159.4 621.1,161.5 615.6,165.5 611.3,171.2 608.2,179.5 602.8,185.2 592.7,180.3 
		586.5,183.6 579.9,185.7 574.9,195.7 566,187.6 559.8,193.9 552.2,189.9 544.2,191.3 535.8,194.7 527,191.5 	"/>
</g>
</svg>
