<?xml version="1.0" encoding="utf-8"?>
<!-- Generator: Adobe Illustrator 19.0.0, SVG Export Plug-In . SVG Version: 6.00 Build 0)  -->
<svg version="1.1" id="Layer_1" xmlns="http://www.w3.org/2000/svg" xmlns:xlink="http://www.w3.org/1999/xlink" x="0px" y="0px"
	 viewBox="0 -16.7 850.4 627" style="enable-background:new 0 -16.7 850.4 627;" xml:space="preserve">
<style type="text/css">
	.st0{fill:#C2A572;}
</style>
<g id="XMLID_173_">
	<polygon class="st0" points="75.3,416.4 66.7,409.3 68.5,402 76.3,396.5 78.8,390.1 80.7,383.5 83.1,377 86.5,370.8 84.3,362.1 
		89.3,356.5 86.2,347.7 98.2,344.5 94,335.7 96.7,329.1 100.3,322.5 98.9,315.1 100.6,308.1 107.4,302.5 106.9,295 112.1,289.5 
		113.1,282.3 117.7,276.8 114.8,267.3 115.6,259.3 127.8,258.5 130,251.4 130,242.5 139,240.5 136.9,229.4 142.8,224.8 151,222.5 
		154.4,215.9 164.4,215.5 168,209.1 167,198 177,197.8 178.4,189 188.4,188.8 188.5,178.8 197.5,177.5 196.8,167.1 207.5,167.2 
		210.9,160.6 217.1,156.6 223.8,153.2 227.6,146.9 230.7,139.7 235.7,134.5 244.5,133.5 244.7,122.9 253.4,122 260.3,118.9 
		259.6,107 267.2,104.7 272,99.3 282.8,101.2 286.4,94.2 294.8,93.3 294.1,80.7 304.6,82.5 308.3,75.5 317.2,75.3 318.6,65.4 
		323.6,60.1 333,60.3 333.5,49.5 344,51 344.8,40.6 352.5,38.7 355.7,31.4 360.6,26.1 371.5,26.6 375.5,19.6 382.4,15.3 388,10.3 
		393.8,6.7 400,7.2 406.4,7.2 410.6,6.8 414,10.6 409.8,16.8 406.9,22.4 407.7,32 396.7,30.5 394.1,38.7 392.2,47.7 385.1,50.3 
		379.9,55.3 372.3,57.4 370.2,66.1 360.7,65.8 357.4,73.1 350,75.5 346.4,82.3 340.9,87 332.2,87.7 326.1,91.6 325.9,102.5 
		315.1,100.8 312.1,108.4 303.7,109.6 299,115.1 296.1,122.7 289.8,126.5 285.2,132.1 282.7,140.1 275.3,142.6 269.7,147 
		260.8,147.9 256,153.3 256.2,164.1 249.7,167.7 245.6,173.8 234.2,172 232.8,181 229.1,187.5 223.5,192 217.4,196.1 213.7,202.5 
		208.6,207.5 201.4,210.4 198.3,217.4 191.6,220.8 186.6,226 184.7,233.8 180.1,239.2 168.7,239.1 164.3,244.9 165.1,254.4 
		155.1,256.2 156.5,265.8 147.3,268.5 147.7,277.1 144.5,283.5 137,287.9 139.9,297.1 135.6,303 132.6,309.5 128.5,315.8 131.1,324 
		122.1,329.2 129,338 121.1,343.9 126.8,352.8 122,359.5 120.7,367.2 117,373.9 108.6,378.6 104.5,385.3 108.5,394.7 109.1,402.4 
		101.2,408.8 100,416.7 103.6,424.4 103.1,432.9 107.8,441.9 116.3,438.1 123.6,440.4 128.9,435.8 136.3,434.1 136,426 142.5,422.5 
		145.6,414.1 152.5,411.1 160.6,410.5 166.5,405.9 175.4,408.7 180.1,400.3 186.6,396 195.2,401.8 202.2,402.1 209.1,394.5 
		216.5,395.3 222.8,404 231.1,398 238.2,400.1 245.2,402.3 253,403.2 259,407.9 265.4,411.8 271.6,415.9 278.2,419.8 276.9,431.6 
		286.2,432.8 293.1,436.8 297.2,443 300.5,449.8 303.8,456.4 299.5,466.6 312.9,469.8 310.5,479 307.4,486.7 310.4,496.1 
		298.5,498.4 301.5,507.9 292,511 293.5,520.1 293.8,528.9 289.5,534.9 285.2,541 274.7,542 272.9,549.9 267.6,555 261,558.5 
		258.4,566.8 252.5,571.4 247.2,577.2 240.3,580.6 231.8,580 224.5,581.2 216.9,580.5 210.7,586.7 203,582.6 195.9,581.3 
		188.3,590.4 181.7,582 174.5,581.8 166.3,584.3 159.8,579.9 154.3,574.1 148.9,569 139.2,570.9 137.1,561.3 130.2,558.4 
		122.2,556.2 116.3,551.5 110.1,547 108.5,538.6 102.3,534.2 101,526.3 92.9,522.3 90.8,515.2 90.2,507.6 83.4,502.4 87.1,493.5 
		83.4,487.1 79.1,480.9 78.4,473.6 73.9,467.3 76.6,459.2 77.4,451.7 70.5,445.7 77.1,437.3 72.2,430.8 70.7,423.8 	"/>
</g>
<g id="XMLID_171_">
	<polygon class="st0" points="495.7,428.2 500.6,421 503.6,413.9 493.7,406.2 502.1,399.4 500,391.9 496.3,384.2 498.1,377 
		505.1,370.6 508.7,363.9 505,355.9 510.4,349.6 506.9,341.4 510.3,334.7 508.1,326.7 512,320.1 517.5,314.2 518.6,306.9 
		515.4,298.2 526.5,294.3 523,285.3 527.4,279.2 532.3,273.4 535.5,266.9 540.2,261.1 540.8,253.4 538.2,244 541.5,237.5 549,233.1 
		553.3,227.2 555.6,220.2 559,213.7 565.4,209.1 565.5,200.6 573.7,197.2 574.4,189 582.9,186 580.3,175.2 585.6,170.1 590.1,164.3 
		599.8,162.6 602.9,155.8 606,149 608.3,141.5 611.3,134.5 618.1,130.7 625,127 628.7,120.8 630.3,112.8 636.4,108.7 645.8,108 
		647.6,99.9 651,93.3 657,89.3 664,86.5 665.2,77.3 672.9,75.3 675.8,67.7 681.9,63.8 692.1,65.6 695.4,58.2 703.9,58.1 706.8,49.8 
		711.8,44.4 719.2,43.5 726.7,44.4 732.5,40 739.5,41.9 742.9,48.2 740.3,55.2 739.9,62.3 735.4,69 726.5,69.8 722.7,77.1 716,79.9 
		708.4,81.6 707.8,92.8 695.7,88.8 692.4,96.2 686.8,100.7 680.7,104.6 678.6,112.9 670,114.2 670.6,125 659.2,123.7 660.4,134.8 
		654.6,139 648.3,142.9 642.7,147.4 636.4,151.5 630.3,155.9 630.4,165 621.2,167 624.2,178.1 614.7,180 615.3,189.1 607.6,192.5 
		601.3,197 604.5,207.4 599.8,212.8 592.8,217 588.1,222.6 581.9,227.3 581.1,235 583.6,244.5 578.9,250.2 573.8,255.8 565.6,260 
		571.2,270.6 560.2,273.8 560.9,282 562.2,290.4 555.4,295.7 556.5,303.8 551.9,309.9 544,315.1 545.8,323.3 539.8,329.3 
		542.3,337.6 539.7,344.5 535.1,351 542.9,360.1 538.3,366.6 533.4,373.2 532.4,380.5 533.9,388.1 534.4,395.5 528,402.2 
		530.5,409.8 529.9,417.1 527.9,424.4 532.5,431.9 525.9,439.2 531,446.6 526.6,454.3 526.6,462 532.1,468.7 532.7,476.3 
		540.8,481.1 542.9,486.6 543.4,495.6 550.5,489.9 559.3,494.3 560.4,486.2 559.1,479.1 562.2,472.3 560.1,464.7 566.2,458.7 
		566.1,451.4 566.4,443.9 568.8,437 572.2,430.6 578.2,425.8 583.4,420.9 585.9,413.3 594.7,413 601.5,411.4 607,407.7 612.1,401 
		618,395.4 626.5,400.5 632.1,392.2 639.3,391.4 647.2,397.3 654,394.9 661,392.3 668,396 674.6,400 681.7,398.6 690.1,393.3 
		694.3,404.1 702,402.9 706.9,408.6 716.9,405.3 722.9,409.5 723.4,420.2 727.8,425.4 739.9,423.5 742.1,431.1 746.9,436.8 
		752.1,443.3 745.4,451.4 752.7,458.4 752.4,465.4 752.7,471.9 752.3,479.3 751.3,486.7 748.5,493.8 745.6,500.7 740.8,506.9 
		743.4,514.8 745.1,523 738.3,528.2 733.2,533.5 728.4,538.7 724.4,544.2 722.5,551.9 716,555.4 711.8,561.4 705.2,564.4 
		697.9,565.5 692.3,570.3 685.2,571.3 678.2,571.8 672.1,578.6 664.5,574.5 657.5,573 650.5,573.3 643.4,575.5 636.5,573 
		629.6,571.4 621.6,580.4 614.9,576.5 608.6,570.5 600.2,577.1 593.7,573.2 587.1,570.1 580.3,568.1 573.6,565.7 566.7,563.6 
		563,555.3 557,552 548.1,552.8 545.2,545.1 538.5,542.2 530.6,540.1 528.2,532.6 526.6,524.9 516.9,523.1 514.5,516.3 513.8,508.7 
		511.7,502.1 508.2,496.2 501,491.3 504,483.1 496.8,477.6 496.1,470.4 504,462.4 499.2,456 497.5,449.1 497.1,442.2 494.2,435.1 	
		"/>
</g>
</svg>
