<?xml version="1.0" encoding="utf-8"?>
<!-- Generator: Adobe Illustrator 19.0.0, SVG Export Plug-In . SVG Version: 6.00 Build 0)  -->
<svg version="1.1" id="Layer_1" xmlns="http://www.w3.org/2000/svg" xmlns:xlink="http://www.w3.org/1999/xlink" x="0px" y="0px"
	 viewBox="0 -45.7 850.4 685" style="enable-background:new 0 -45.7 850.4 685;" xml:space="preserve">
<style type="text/css">
	.st0{fill:#C2A572;}
</style>
<path id="XMLID_182_" class="st0" d="M195.1,198.9c7.4-0.8,14.8-0.8,22.2,0.4c8.7,1.4,11-0.6,11.8-9.4c1.8-18.7,3.6-37.4,6.4-56.1
	c3.8-25.5,15.2-47.2,32.6-65.1c23-23.7,47.1-47,77.2-61.5c24.4-11.8,49.8-21.4,77.6-24.6c29.6-3.4,58.8-2.8,87.7,3.1
	c33.8,6.8,66,18.9,92.7,41.5c20.1,17,33.2,39.4,39.6,64.9c6.1,24.7,13.4,49.2,16.5,74.5c2,16.3,2.9,32.7,3.8,49.1
	c0.2,4,1,6.8,5.1,5.7c20.4-5.6,38.9,2.3,57.3,8.4c20.4,6.8,39.8,16,55.1,32.1C797,279,804,297.2,795,321.1
	c-5.1,13.6-12.9,23.5-24,31.5c-6.5,4.6-8.8,10.4-6.1,17.2c6.9,17.5,4.7,35.8,4.7,53.6c0.1,15.1-5.3,30.1-8.3,45.2
	c-1.3,6.8-3,13.5-3.7,20.3c-1.7,18-11.5,32.3-20.8,46.7c-18.8,29-46.7,45.5-79.2,54.3c-33.6,9.1-67.1,18.9-102.5,19.9
	c-18.8,0.6-38-2-56.4,2.2c-14.9,3.4-29-1.7-43.6-0.3c-32.7,3.1-64.7-4.2-96.9-8.1c-22.9-2.8-45.6-6.7-68.5-9.6
	c-11.7-1.5-22.1-7.1-33.5-9.6c-15.7-3.4-31.3-8.4-46.2-14.5c-15.7-6.4-30.6-14.6-45.6-22.6c-8.4-4.4-16.6-9.5-24.3-15
	c-18.5-13-26.4-32.5-31.1-53.7c-4.6-20.6-8.8-41.5-12-62.2c-3.5-22.6-5.1-45.9-4.1-69c0.3-7.8-2.2-12.6-9-15.9
	c-10.3-5.2-19.6-12.3-29.9-17.8c-15.1-8.1-23.8-29.2-17.1-41.3c7.1-12.6,15.9-24,27.7-33.4c22.6-18,49.3-23.6,76.2-29.7
	c10.3-2.3,20.6-5.2,30.6-8.6C179.3,198,187.2,199.7,195.1,198.9z M366.7,223.6c31.6-5.8,64.4,6.1,98,2.5c8.3-0.9,17.7,2.2,26.7,2.4
	c28.2,0.7,56.5,1.3,84.8,1.9c1.6,0,3.6,0.3,4.3-1.3c3.2-7.1,6.8-4.7,10.8-0.9c3.4,3.1,7.8,4,11.9,2.5c4.2-1.5,2.4-5.9,2.7-9.2
	c2.9-24.4,0.3-48.8-1.8-73c-1.5-17.8-2.8-36-10.1-52.8c-3.7-8.5-10.2-15.4-14.7-23.4c-10.2-18-25-31.3-41-43.6
	c-7.6-5.8-16.3-8.6-25.2-11.3c-10.5-3.2-21.3-3.8-32-5.9c-13.5-2.6-26.8-6.9-40.7-6.5c-19,0.4-37.2,4.6-55.1,10.9
	c-21.6,7.7-36.8,21.2-46.1,42.7c-12.7,29-17,60-21.5,90.6c-3.2,22.1-5.9,44.6-6.3,67.1c-0.1,5.7,1.7,7.4,7.3,7.3
	C334,223.4,349.4,223.6,366.7,223.6z M696.6,246.9c8.4,0.1,17.8-0.7,26.4,5.6c5.3,3.9,5.8,9.6,10.4,13.2c10.8,8.5,12.4,26,2.6,35.2
	c-11.5,10.7-24.4,18.9-40.8,21.3c-17.4,2.5-35,1.7-52.2,3.9c-12.4,1.6-24.7,2.9-37.2,2.7c-26-0.3-52-0.6-77.9-0.5
	c-23,0.1-45.9,2.5-69,1c-22.2-1.4-44.3-4.2-66.7-4.2c-25.7,0-51.5-1.4-77.1-2.7c-7.3-0.4-12.9-0.8-14.8,8.3
	c-0.7,3.4-3.5,7.2-8.3,5.1c-4-1.8-4-5.1-2-8.7c2.1-3.8,1-6.2-3.5-6.5c-18-1.1-35.8-5.9-53.9-3.1c-7.8,1.2-15.3,6.4-21.4-3
	c-0.2-0.3-1-0.3-1.5-0.3c-10.8-1.2-21.6-2.4-32.4-3.5c-23.1-2.3-46.4-2.1-68.9-9.8c-14.3-4.9-21.2-24.4-12.2-36.8
	c10-13.8,26.5-18.7,39-29.2c3.3-2.8,7.9,2.4,12.2,1.5c1.5-0.3,3.9-0.4,4.4-1.3c4.4-7.7,10.8-5.4,17.3-4.3c4.7,0.8,9.5-0.1,14.2-1.3
	c8-2.1,16.2-2.8,24.5-2.3c2.9,0.2,5.8-0.1,8.7-0.6c7-1.1,6.3-6.9,6.8-11.8c0.5-5.3-3.4-6.9-7.6-7.2c-5.7-0.5-11.3-0.2-15.4-0.2
	c-24-2.9-44,7.2-65.1,12.1c-16.4,3.8-33.7,4.6-48,15.4c-3.7,2.8-7.7,5.4-12.1,7.6c-13.2,6.4-21.5,18.2-28.5,30.2
	c-7.1,12.3,0.6,28,16.2,35.7c6.7,3.3,13,7.2,19.1,11.5c13,9.1,27,15.5,42.7,18.3c35.1,6.4,70.8,6.7,106.2,9.7
	c27.2,2.3,54.5,3.2,81.8,4.6c31,1.5,61.7,6.8,92.7,8.8c35.5,2.2,70.9,4.1,106.4,3c14.3-0.4,28.7-0.7,43-0.4
	c27.3,0.6,54.6,0.6,81.8-1c3.4-0.2,6.7-2,10.2-1.1c12.5,3.4,25.3,1.7,38,2c6.1,0.1,11-4.4,16.8-3.3c12.3,2.2,24.4-0.2,36.4-1.4
	c4.9-0.5,11.2-0.7,13.7-5.2c3.6-6.2,5.9-12.3,15-9c1.2,0.4,3.5-2,5.2-3.3c10-7.1,13.5-17.5,16.4-28.9c4.1-16.2,0.4-30-10-42.2
	c-15.8-18.4-37.6-27.4-59.6-35.3c-15.4-5.5-31.4-10.6-48.1-4.4c-2.7,1-7.4-2.4-7.9,2.4c-0.4,3.6,4.4,4,6.9,5.7
	c2.2,1.5,4.9,2.1,7.1,3.5 M312.5,125.2c4.4-31.8,14.7-61,30.7-88.6c0.9-1.6,2.5-3.1,0.9-5c-1.4-1.7-3.5-1.4-5.1-0.5
	c-17.3,9.6-37.5,14.9-49,33.3c-3.2,5-7.9,9.3-14.3,10.7c-1.7,0.4-3.5,1.5-4.6,2.8c-10.1,11.5-18.3,24.6-22.1,39.2
	c-5.2,20.2-8.2,41.1-9.1,62.1c-0.4,8.4-0.5,16.9-1.3,25.3c-1.4,14.7-3.3,29.4-4.9,44.1c-1.8,15-0.4,30.2-2.6,45.2
	c-1.1,7.6,2,13.9,7.5,14.3c15.6,1.3,31.2,2.1,46.7,3.5c6.6,0.6,8.6-2.4,9.5-8.5c3.8-26.3,2.8-52.8,6.7-79.2 M383.6,6.3
	c3.9-2.2,8-4.1,12.6-4.5c13.5-1,27-2.2,40.4-3.5c5.3-0.8,10.5-0.3,15.8,0.7c10.7,2,21.4,3.7,32.1,5.4c32,5,60.9,14.8,83.8,40.4
	c27.7,30.8,43.3,65.6,43.7,106.8c0.2,23.3,6.6,46.3,3.2,69.8c-0.3,2.3,0.4,6,3.3,5.1c9.7-2.8,18.3,1.7,27.4,2.8
	c3.4,0.4,5.5-0.3,6.3-4.2c3.5-17.1,2.1-34.2,0.2-51.3c-2.6-23.8-8.8-46.8-14.3-70c-6.4-26.6-16-51.5-38.1-69.9
	c-19.2-16-40.6-27-64.6-34.3c-52.6-16-104.6-16.7-156.5,1.9c-8.5,3-16.9,6.2-25.2,9.5c-2.1,0.8-5.2,1.9-4.4,4.7c0.9,3.4,4,1.6,6.1,1
	 M327.5,421.6c0,5.3-0.4,11.1,0.1,16.9c0.7,7.8,3.9,9.4,11.4,6.6c5.9-2.2,9.4-6.9,12-12.2c3-6.1,6.9-11.1,12-15.6
	c13.6-12.2,25.9-8.6,30.4,9.1c1.7,6.6,4.7,12.3,9.3,17.3c2,2.2,4.3,4.6,7.4,3.6s2.2-4.4,2.7-6.9c4.7-21.3,3.4-43.9,13.8-64
	c2.5-4.9-0.3-6.7-5-6.9c-26.5-1.2-52.9-3.7-79.2-6.3c-5.8-0.6-8.2,3.4-9.2,8C329.5,387.5,324,403.8,327.5,421.6z M534.1,371.3
	c0-0.3,0-0.6,0-0.8c-11.9,0.7-23.8,1.6-35.7,2.1c-5.7,0.2-7.7,2.2-7.3,8.3c1.1,21.2,8.9,40.7,13.7,61c1.2,5.1,4,5.2,7.4,2
	c6-5.6,11.9-11.3,17.6-17.2c6.8-7.1,10.5-7.3,17.8-0.3c6.5,6.3,9.6,14.4,13.1,22.4c3.6,8.4,11.4,11.6,21.9,9.2
	c8.8-2,5.3-9.1,5.5-14.3c0.2-3.9-0.8-8-2-11.7c-5.7-17.6-11.8-35.1-17.6-52.7c-1.7-5.2-4.8-8-10.4-8
	C550,371.4,542,371.3,534.1,371.3z M258.5,357c-7-1.8-9.8,2.8-13.3,7.5c-13.7,18.7-17.7,39.8-15.9,62.4c0.5,6.2,3.4,7.6,9,6.3
	c4.4-1,7.9-2.9,9.9-7.1c1.7-3.6,3.3-7.3,5.6-10.5c8.6-11.6,20.3-16.8,31.9-4.9c4.9,5,9.1,10.2,12.8,16c2.5,4,4.5,8.5,8.8,11.1
	c3.3,2,6.4,6.4,10.4,4.4c4.1-2.1,2.5-7.2,2.2-11c-1.8-19.7-0.9-39.1,4.9-58.2c3.2-10.4,1-12.4-10.3-12.3c-3.2,0-6.3-0.3-9.5-0.3
	C289.5,360.4,274,358.6,258.5,357z M259.7,453.2c-5.7,0-10.9,3.7-15.1,7.8c-8.6,8.2-15.5,17.3-14.6,30.6c0.7,10.7,5.8,19.7,8.3,29.7
	c0.5,2.2,0.5,5.2,3.5,5.6c3.1,0.4,4.7-2,6.3-4.1c3.7-4.8,7.1-9.9,11.1-14.5c4.2-5,9.3-5.6,14.7-1.6c6.2,4.6,12.7,10.1,15.3,16.8
	c6.2,15.5,18.6,18.9,32.7,20.9c6.2,0.9,8-1.5,6.4-7c-1.8-6.4-4.5-12.5-5.7-19c-1.1-6.4-4.4-9.7-10.2-11.8c-4.7-1.7-9.2-3.9-12.5-8
	c-10.9-14-21.9-27.8-32.8-41.8C265.4,454.5,263.8,452.6,259.7,453.2z M350.9,595.1c4.3,0.3,6.8,0.7,7.8-1.7c0.9-2.4-1.2-3.9-2.7-5.3
	c-7.1-6.9-13.6-14.6-17-23.8c-3.7-9.8-9.8-13-19.8-13.2c-13.1-0.2-25.1-4.1-32.6-16.3c-3.3-5.4-6.5-10.9-10.4-15.9
	c-6.1-8-10.6-7.7-16.8-0.1c-3.2,3.9-5.5,8.4-8.1,12.7c-6,9.7-6.4,12.4,1.3,20.4c9.3,9.8,19.1,19.1,28.7,28.6c1.6,1.6,3.4,2.5,5.5,3
	C308.5,589.5,331,591.2,350.9,595.1z M375.4,520.4c-7.8,0.4-13.3,2.6-17.1,8c-4.2,5.8-8.2,11.7-12.7,17.2c-2.9,3.6-2.9,6.8-1.4,11
	c3.7,10.3,10.6,18.4,18.2,25.7c7.5,7.2,15.3,15.1,26.2,17.1c10.1,1.8,20.5,2.4,30.8,3.3c6.8,0.6,8-1.5,5.1-7.9
	c-3.5-7.7-7.5-15.3-7.9-23.9c-0.3-5.8-2.4-9.3-8.1-11c-4.2-1.2-7-4.7-9.1-8.5c-4.6-8-8.9-16.2-13.6-24.2
	C383.2,522.8,379.5,520,375.4,520.4z M151.5,398.5c0,2.5-1.3,5.9,1.6,7.2c3.6,1.6,4.9-2.2,6.7-4.2c1.8-1.9,3.4-4.1,5-6.2
	c5.7-7.6,12.2-8.6,19.8-3.1c4.5,3.2,6.6,8.1,9.5,12.5c5.7,8.7,7.7,20,17.7,25.8c2.4,1.4,4.9,3.8,8,2c2.9-1.7,1.6-4.7,1.7-7.3
	c0.3-13.7-0.7-27.5,4.8-40.7c2.8-6.6,6.5-12.6,10.1-18.8c3.9-6.7,2.6-9.6-4.7-10.1c-21.1-1.6-42.3-1.9-63.4-4.6
	c-3.4-0.4-6.4,0.5-7.5,4.3C156.9,369.5,151.8,383.5,151.5,398.5z M420.5,444c0.2,2.6-0.7,5.4,2.1,6.7c2.6,1.3,5.2,0.6,7.4-1.2
	c3.3-2.7,6.3-5.9,7.7-10c1.5-4.4,4.1-8,6.9-11.5c9.6-12.1,20.2-11,26.7,3c3.9,8.5,9.2,15.5,17.3,20.2c2.4,1.4,4.5,4.8,7.6,3
	c3.2-1.8,1.4-5.3,1-8c-4.1-23.2-13.6-45.2-15.2-69c-0.2-3.3-2.9-4.8-6.3-4.9c-8-0.3-15.9-1.1-23.8-0.9c-12,0.2-20.1,6.4-22.4,18.2
	C426,407.7,423.4,426.1,420.5,444z M461.2,604C461.2,604,461.2,604.1,461.2,604c4.2,0.1,8.5-0.1,12.7,0.2c6.9,0.5,11-2.4,12.4-9.3
	c1.8-9.1,3.9-18.1,5.7-27.2c0.3-1.5,0.5-3.5-0.3-4.7c-5.8-8.9-6.5-19.5-10-29.1c-3.1-8.4-12.3-12.8-20.6-10.3
	c-3.1,0.9-5.4,2.5-5.7,5.8c-1.4,16.6-12.7,26.2-25.1,34.7c-4.6,3.1-5.8,6.6-4.3,11.4c1,3.3,2.3,6.5,3.5,9.7
	c7.3,19.1,8.2,19.7,28.5,18.9C459.1,604,460.2,604,461.2,604z M616.4,370.8c-11.9,0.8-21.7,1.6-31.5,1.9c-6.6,0.2-8.3,3.5-7,9.3
	c0.5,2.1,0.9,4.2,1.5,6.2c6.5,19.8,15.7,38.8,17,60.1c0.1,1.7,0.5,3.9,2.7,4.5c2.7,0.7,3.8-1.6,4.7-3.4c2.8-5.8,3.8-12.1,3.9-18.5
	c0.1-9.1,7.3-9.8,13.6-11.8c6-2,9.4,0.6,12.5,5.4c3.5,5.5,4.1,12.1,7.4,17.6c1.7,2.8,3.5,5.9,7.3,4.6c3.3-1.1,1.9-4.4,2-7
	c1.7-21.6-4.3-42-9.4-62.5c-1.1-4.4-3.4-6.3-7.7-6.2C627,370.9,620.6,370.8,616.4,370.8z M590.2,477.6c0,0.4,0-0.9,0-2.3
	c0.1-9.1-1.1-10.3-9.9-9.9c-1.6,0.1-3.2,0.2-4.8,0.4c-9.1,1-16.2-2.3-20.4-10.5c-3.7-7.3-8.1-14.1-12.5-21c-2.5-4-5.2-5.2-8.9-1.8
	c-7,6.5-14,13-20.8,19.6c-2.5,2.4-4.8,5.3-4.4,9c1.4,13.9,1.2,27.9,1.3,41.8c0,3.7,2.3,4.8,5.9,4.5c6-0.5,8.9-4.3,10.8-9.2
	c3.6-9.4,8.6-17.6,17.6-22.8c2.5-1.5,5.1-3.6,8-1.1c6.6,5.7,14.1,10.3,17,19.4c1.3,4.2,3.3,8.4,6.3,11.9c4.7,5.2,8.7,4.5,10.8-2.1
	C588.6,495.7,589.7,487.5,590.2,477.6z M329.1,488.4c0.2,13.4,1.9,14.5,12.4,10.4c3.2-1.3,6-3,8.4-5.8c6-7.1,12.5-13.7,18-21.2
	c9.6-13.2,23.2-11.8,30.8,2.6c1.2,2.3,2.9,4.4,4.7,6.4c1.1,1.3,2.8,1.6,4.1,0c4-4.5,2.5-22.8-2.6-26.5c-9.4-6.8-15.6-15.6-19.2-26.5
	c-3.6-10.7-12.6-12.5-20.2-4c-3.9,4.3-7.3,9.2-10.1,14.3c-4.5,8.3-11.2,13.2-20.2,15.4c-4.3,1-6.2,3.2-6,7.8
	C329.7,470.9,330.6,480.7,329.1,488.4z M502,484.2c0-2.4,0.1-4.8,0-7.2c-0.3-7.1-1.5-12.5-9.8-15.8c-9.8-3.9-18.2-11.1-23.6-20.7
	c-9.8-17.4-12.7-17.6-24.2-0.9c-5.8,8.4-10.5,18-21.8,20.7c-2.5,0.6-4.4,3.1-4.7,6c-1,10-2.1,20.1-0.5,30.1c1.2,7.7,5.3,10,13.2,8.5
	c10.3-2,17.8-5.6,19.4-18.1c0.9-7,2.6-16,12.5-18.3c10.5-2.5,18.8,1.5,25.1,13.2c2.4,4.4,4.2,9.1,6.4,13.6c1.1,2.1,2.5,4.5,5.4,3.8
	c2.6-0.6,2.5-3.2,2.6-5.3C502.2,490.6,502.1,487.4,502,484.2z M175.2,454.1c-4.4-0.2-10-0.6-13.9,3.8c-8.6,9.8-14.3,20.4-8.4,33.8
	c2.1,4.8,3.9,9.9,6.4,14.5c9.5,16.8,9.6,16.7,23.3,3.3c5.5-5.3,17.9-7.4,22.6-3.9c7.2,5.2,12.3,11.9,15.5,20.2
	c0.7,1.9,1.7,3.9,3,5.5c1.6,1.9,3.8,3.2,6.3,1.7c2.2-1.3,2.1-3.6,1.4-5.7c-3.8-11.5-8-22.9-10.3-34.8c-0.7-3.5-3.6-4.2-6.7-4.5
	c-7.8-0.7-13.4-4.3-16.2-11.9c-1.3-3.5-3.2-6.7-4.6-10.1C189.2,455,187.7,453.9,175.2,454.1z M322.3,472.7c-0.1-0.9-0.7-3.6-0.5-6.2
	c0.6-9-3.1-14.6-11.6-18.3c-9-3.9-15.2-11-19.2-20.2c-1.6-3.8-4.6-7.1-7.7-10c-8.9-8.6-19.6-7.3-24.6,4c-4.4,10-11.2,16.6-21.2,19.9
	c-7.1,2.4-7.9,7.7-8.1,13.8c0,1.5-0.3,3.4,1.3,4.3c1.8,1,2.9-0.6,4.1-1.5c5.3-4,10.1-8.5,16.3-11.2c9.6-4.2,15.6-2.5,21.9,5.6
	c10.9,14,22.1,27.6,33.2,41.4c2,2.5,4.5,4.3,7.7,5.4c4,1.4,6,0.8,6.2-3.8C320.8,488.6,321.6,481.5,322.3,472.7z M503.7,549.7
	c-0.4,10.4,1.4,12,9.6,12c11.8,0,18-7.4,23-16.8c7.4-13.8,16.8-16.4,30-8.9c2.6,1.5,5.5,5.2,8.5,2.7c4.7-3.9,5.2-10.2,6.4-15.8
	c0.7-3.6-1.6-5.8-4.7-7.4c-6.5-3.5-11.4-8.5-14.4-15.4c-1.7-3.9-3.7-7.6-5.8-11.3c-3.3-5.9-7.5-6.8-13-2.6
	c-5.1,3.9-7.9,9.3-10.5,14.8c-3.9,8.1-8.7,14.6-18.8,14.8c-3,0.1-5.2,1.8-5.3,4.9C508.3,531.4,504.9,541.6,503.7,549.7z
	 M567.4,600.9c12.5-0.3,24.6-3.3,36.8-5.8c7.9-1.7,13.5-6,16.8-13.2c6.3-14,12.5-28,18.5-42.1c1.5-3.6,3.6-7.9-0.5-10.9
	c-4.2-3.2-9.4-4.7-14-1.1c-6.7,5.1-13.8,10.2-16.9,18.5c-5,13.3-14.8,18.6-28.5,17.7c-3.4-0.2-6.2,0.3-8,3.7
	c-4.6,8.6-10.1,16.7-13.7,25.9c-2.8,7.2-2,8.5,5.6,7.8C564.8,601.3,566.1,601,567.4,600.9z M149.1,438.8c-0.1,0-0.3,0-0.4,0
	c0,4.8,0,9.5,0,14.3c0,1.6,0.3,3.3,2,4.1c1.8,0.9,3.1-0.1,3.9-1.6c8.1-13.5,20.3-9.5,32-7.3c4.5,0.8,7.3,3.5,9.3,7.7
	c3.3,6.9,7,13.7,10.8,20.4c1.7,3,4.7,4.3,8.2,3.5c3-0.6,4.5-3.1,4.8-5.8c0.8-7.9,1.2-15.8,1.6-23.7c0.2-3.4-1.4-5.9-4.4-7.9
	c-12.2-8.3-22.9-17.9-28.2-32.3c-1-2.6-3-5-4.9-7.2c-5.5-6.2-10.8-6-15.7,0.7c-3.6,4.9-6.8,10.3-12.9,12.6
	c-5.3,2.1-6.8,6.3-6.7,11.4C148.7,431.4,148.9,435.1,149.1,438.8z M330.5,515.4c0.9,7,3.9,14.4,6.7,21.8c1.8,4.7,4.9,2.8,7.2-0.1
	c3.7-4.8,7.4-9.7,11-14.6c9.2-12.8,22.9-13.9,33.2-2.1c6,6.9,12.1,14,15.3,22.8c1.1,3.1,2.9,6.5,6.7,5.3c3.4-1.1,1.5-4.5,1.2-7
	c-0.9-10.6-2.1-21.1-2.7-31.7c-0.3-6.5-2.6-12.1-6.8-16.5c-4.8-5.1-8.5-10.7-11.6-16.8c-3.2-6.5-8.5-7-13.9-3.2
	c-5.1,3.6-9.7,7.7-13.6,13c-7.2,9.6-14.5,20-28.1,21.7C331.5,508.5,330.5,511.1,330.5,515.4z M418,523.5c1.3,9.2,2.4,18.4,3.9,27.5
	c0.8,4.7,4.2,8.3,8.2,4.8c9.2-7.8,21.4-14,19.3-29.4c-0.6-4.3,1.4-7.9,5-10.2c7.3-4.8,22-1.7,27.5,5.2c4.3,5.5,6.8,11.9,9.6,18.1
	c1.4,3.2,3.1,4.5,5.6,1.1c4.1-5.7,3.7-23.2-0.6-28.8c-5.8-7.6-11-15.5-14.6-24.4c-0.1-0.2-0.2-0.5-0.3-0.7
	c-2.8-6.7-7.3-11.5-15.1-10.5c-7.5,1-9.5,7.6-10.1,13.6c-1,10.9-7.4,16.5-16.8,19.8c-4.2,1.5-8.4,3.3-13,3.3
	C419.5,512.9,416.3,516.1,418,523.5z M712.5,413.4c0,5.8-0.3,11.7,0.1,17.5c0.3,4.1,0.1,9,6.3,9.2c5.9,0.2,11.1-0.5,12.7-7.7
	c1.5-7,3.2-14,6.9-20.2c3.5-5.9,8.3-9,15.1-5.1c4.3,2.4,6.5,1.8,6.5-3.4c0.2-11.4-1.3-22.7-3.1-33.9c-0.9-5.3-4.1-7-9.8-5.6
	c-10.5,2.6-21.3,4.2-32.2,4.3c-7.9,0.1-9.7,2.1-7.6,9.8C710.5,389.8,713,401.3,712.5,413.4z M518.2,603.6c0-0.2,0-0.5,0-0.7
	c5.8,0,11.6,0,17.4,0c3.4,0,6.5-0.8,8.2-3.8c7.6-13,15.3-25.9,22.4-39.1c3.4-6.4,0-13.9-7.1-18.1c-6.1-3.6-10.7-0.6-14.6,3.8
	c-3,3.3-5.5,7.1-8,10.8c-5.6,8.2-12.9,12.9-23.2,12.7c-12.7-0.2-12.7,0.1-15.4,13.1c-0.3,1.6-0.7,3.1-1,4.7
	c-2.3,15.1-2.3,15.1,13.3,16.1C512.9,603.1,515.6,603.3,518.2,603.6z M674.9,371.5c0-0.1,0-0.1,0-0.2c-4.8,0-9.6,0.1-14.3,0
	c-10.3-0.2-13.2,2.5-10.2,12.1c5.6,17.6,7.8,35.5,7.4,53.9c-0.1,3.1-1.2,7.7,3.4,8.7c4.8,1.1,8.9-1.2,11.7-5.1
	c1.9-2.6,2.7-5.7,2.9-9c0.4-4.8,0.7-9.5,1.2-14.2c1.2-10.4,6.2-13.8,16.4-11c11.5,3.2,11.5,3.2,9.8-8.9c-0.3-2.1-0.7-4.2-1.2-6.2
	c-5-20-5-20-25.6-20.2C676,371.5,675.5,371.5,674.9,371.5z M256.4,576.6c2.9,0,4.8,0.8,5.6-1c1.1-2.5-1.1-4.1-2.7-5.2
	c-9-6.2-14.7-15.1-20.3-24.2c-2-3.3-4.8-4.4-8.5-4.9c-8-1.1-14.8-4.2-16.8-13.3c-0.7-3.2-2.7-5.8-4.8-8.1
	c-4.5-4.8-8.2-10.5-16.6-6.8c-8.6,3.7-12.1,7.7-12.1,17.4c0,2.6-0.1,4.8-2.5,6.2c-6.5,3.8-3.4,6.5,1.1,8.8
	c9.7,4.9,19.1,10.5,29.2,14.4C224.4,566.2,241.1,571.4,256.4,576.6z M119.3,345.6c-17.2-3.9-17.3-3.8-17.5,14
	c-0.2,6.9-0.9,14,6.6,18.2c0.9,0.5,1.2,2.3,1.4,3.6c1.3,12.2,10.5,18.8,19.1,25c9.5,6.7,13.7,4,14.3-7.6c0.8-13.3,2.5-26.4,7.2-38.9
	c2.8-7.5,2-9.4-6-10.2 M652.3,472.4c-1.3-5,3.1-13.1-4.2-16.6c-9.1-4.4-14.7-10.4-17-20.3c-1-4.2-3.8-8.7-9.6-7.7
	c-5.3,0.9-7.2,5.3-7.8,9.9c-0.8,5.9-1.9,12.8-5.7,16.2c-10.5,9.4-9,21.7-10.6,33.4c-0.6,5-1.3,9.9-2.8,14.8
	c-0.8,2.6-2.9,6.9,1.6,8.2c3.8,1,6.4-2.3,7.7-5.6c2.1-5.5,2.6-11.3,3.1-17.1c0.8-9.6,4.6-14.8,12.1-16.6c6.6-1.6,14.9,2.7,19.2,9.9
	c2.1,3.4,4.3,6.7,6.8,9.8c2.7,3.4,4.7,2.8,5.8-1.5C652.3,483.9,652,478.6,652.3,472.4z M646.8,510.1c0.1-2.2-0.3-4.4-1.7-6
	c-5.6-5.9-8.7-13.2-12.9-19.9c-2.1-3.3-4.5-5.7-9-5.2c-4.4,0.5-7.7,2.7-8.8,6.9c-1.3,4.8-2.1,9.8-2.6,14.8
	c-0.9,9.5-5.8,15.6-14.6,18.9c-3.2,1.2-6.6,2.4-8,6c-2.8,7.4-5.6,14.9-8.1,22.4c-1.9,5.5,0.8,7.2,6.1,6.7c7-0.7,11.2-3.7,14-10.7
	c7.2-18,21.6-27.9,34.9-25.2C644.7,520.6,646.9,518.9,646.8,510.1z M698.5,478.3c-0.1-0.6,0.1-2.6-0.5-4.2c-1.2-3.4-1.3-7.8-5.4-9.1
	c-4.4-1.4-7.6,1.7-10.3,4.6c-4.1,4.3-6.4,9.5-7.2,15.5c-1.2,8.6-2.3,17.8-10.9,22.6c-11.2,6.4-14.6,17.9-8,28.9
	c4,6.7,8.1,7.2,14.1,2.2C688.9,523.4,696.7,502.9,698.5,478.3z M677.8,573.9c1.4-0.6,3-1.5,4.7-2.1c11.7-4.3,20.2-13.4,30.4-19.8
	c6.3-3.9,10.1-10.1,14.7-15.4c2.8-3.2,2.5-6.6-1.3-9.6c-4.9-3.8-8.3-8.8-9.4-15.2c-0.6-3.5-1.9-6.9-5.9-7.6
	c-4.7-0.8-6.3,3.1-8.2,6.2c-1.1,1.8-1.8,3.8-2.6,5.8c-7.5,17.9-10.2,38-24.1,53C674.6,570.9,673.9,573.1,677.8,573.9z M140.5,444.3
	c-0.1,0-0.1,0-0.2,0c0-5.3-0.3-10.6,0.1-15.8c0.3-5.6-1.7-8.5-7.2-10.5c-8.2-3-15.5-7.7-20.8-15.1c-1.5-2.1-2.9-6.1-6.4-4.6
	c-2.7,1.2-2.3,4.9-1.7,7.2c4,16.5,1,35.4,16.4,48.3c3.7,3.1,5.6,8.3,8.8,12.2c1.9,2.3,3.6,6.2,7.4,4.8c3.3-1.2,3.5-5.2,3.6-8.2
	C140.7,456.5,140.5,450.4,140.5,444.3z M659.8,475.3c-0.3,6.7-0.8,11.7-0.7,16.7c0,2.4-0.9,6.1,2.9,6.3c3.1,0.2,3.9-3,4.6-5.7
	c1.6-6.4,3-12.9,4.8-19.2c3.5-12,14.7-18.8,26.8-16c3.4,0.8,5.4-0.1,5.9-3.2c0.7-4.4,1.9-9.5-0.7-13.2c-4.1-5.8-5-11.9-4.9-18.7
	c0.1-5.3-3.9-7.6-9-8.1c-5.9-0.6-6.5,3.5-7,7.5c-0.6,4.5-0.4,9-1.1,13.4c-1.2,6.6-2.6,14.1-9.9,16c-10.4,2.8-13.5,8.7-11.7,18.6
	C660.2,472.1,659.8,474.6,659.8,475.3z M709.6,468.5c-0.1,8.8,7.5,16.3,12.6,11.8c7.8-6.9,16.2-14.5,18.3-25.1
	c1.6-8.3,4.8-12.9,13-14.6c5.4-1.1,10.4-16.5,7.1-20.8c-1-1.2-2.1-1.5-3.5-1.1c-1.8,0.5-3.6,1.2-5.3,0c-6.9-4.5-9.6-0.5-11.2,5.5
	c-0.8,3.1-1.4,6.2-2,9.3c-1.6,8.6-6.3,14-14.7,13.9c-8.3-0.1-11.4,3.7-12.5,10.9C710.8,461.7,710.1,465.1,709.6,468.5z M633.5,588.2
	c2.4-0.4,5.1-0.1,7.1-1.2c8.7-4.5,22.8-1.5,24.2-16.9c0.2-1.7,2.6-3.2,3.9-4.9c3.2-4.2,6.4-8.4,9.5-12.7c2.2-3.1,4.6-7.4,1.5-10
	c-2.7-2.2-5.3,2.1-7.6,4.1c-6.7,5.8-11,6-17.2,0.2s-7.6-5.4-11.1,2.2c-5,11-7.3,23.2-14.3,33.4C627,586.5,629.2,588.4,633.5,588.2z
	 M713.9,488c-3.6-0.6-6.2-0.6-6.9,2.4c-0.6,2.8,2.1,3.3,4,3.9c6.8,2,10.4,6.7,12.4,13.3c1,3.5,2.3,7.1,4.1,10.3
	c2.1,3.7,5.6,4.7,8,0.4c3.5-6.2,9.3-11.9,9.2-19.1c-0.2-15,9.4-27.7,9.1-42.6c-0.1-2.5,2.3-5.6-1.4-6.7c-3.3-1.1-4.7,2.3-5.4,4.6
	c-3,9.6-9.1,17.2-15,25C727.1,485.9,722.9,493.6,713.9,488z M116.3,469.4c1.7,9.1,4.1,18.1,7.4,26.8c6.1,15.9,16.3,28.2,32.2,35.1
	c2.4,1,5.4,2.2,7.1-0.8c1.5-2.5-1-4.3-2.2-6.3c-7.8-11.7-15.6-23.3-18.5-37.4c-0.3-1.6-0.3-3.8-1.9-4.1c-9.3-1.8-14.9-8.2-19.9-15.5
	c-0.5-0.7-1.9-1.2-2.7-1C116.1,466.5,116.2,468.1,116.3,469.4z M492.6,312c1.2-1.7,3.4-3.5,1.7-5.5c-2.3-2.7-4.2,0.1-5.9,1.4
	c-4.4,3.5-8,6.2-13.4,0.3c-1.9-2.1-9.4-8.3-10.9,2.3c-0.1,0.7-1,1.2-1.4,1.8c-1.7,2.2-5.4,3.9-3.6,7.1c1.6,2.9,5.2,1.5,8,1.8
	c1.5,0.2,3.1,0.1,4.7,0.1 M447.4,313.4c0-7.3-6.4-6.2-10.5-6.8c-5.9-0.8-10.7,4.1-10.5,8.6 M632,232.5c-1.8,0.4-5.4-1.3-6.4,1.8
	c-0.9,2.7,2.2,5.9,3.9,6.2c4.9,0.9,10.2,1.3,15,0.2 M355,312.3c-0.5-4.2-5.1-4.7-8.8-5.1c-3.2-0.3-6.3,0.4-6.1,4.3 M648.3,309
	c-3.4-0.2-6.1,2.4-6.3,5.7c-0.1,3.5,3.3,2.7,5.6,3.1c3-0.6,8,0,8.3-3.6 M408.4,284.5c0-2.9-2.7-3.4-5.2-3.6
	c-3.1,0.6-5.7,1.9-5.6,5.5 M525,302.8c2.4,0.4,4.4-1,4-3.6c-0.7-3.9-3.9-5.2-6.9-6.3c-3.2,0-5.1,1.6-4.7,4.3 M618.7,297.9
	c-0.5,1.7,0.7,3.8,2.4,3.2c4.5-1.6,7-5.3,8.4-9.2c-0.2-2.3-1.1-4-3-3.3 M330.3,300.9c3-0.5,5.3-1.9,5.6-5.7c-0.4-1.9-1.7-3-3.8-2.6
	 M425.2,298.8c-0.2-1.9-1-3.4-2.9-3.1c-4.2,0.5-5.9,3.8-7.2,7.2c-0.5,1.4,0.7,2.7,2.1,2.5 M505.6,287.7c0.1,2.6,1.9,4.4,4.6,4.5
	c2.9,0.2,4.2-1.8,4.7-4.2 M560,309.4c3.6-0.2,4.9-3.4,5.7-6.3c0-2.6-0.5-4.8-3.3-4.5 M501.9,311.6c0.8,3.8,0.5,8.4,5.7,8.8
	c1.6,0.1,3.5-0.7,3.3-2.5 M431.8,265.3c1.9-0.2,4.1-0.7,3.8-3.5c-0.2-2.4-1.9-3.8-4.2-4.1 M651.3,271.1c2.6-0.1,4.3-1.7,5.3-4.1
	c0.1-1.6-0.7-2.7-2.2-2.5 M605.9,316.9c-0.2,2.1,1.3,3.3,3.4,3.4c2.6,0.1,3.9-1.2,4.1-3.7 M702.6,309c-0.2,2.1,1.4,2.4,3.5,2.4
	c1.7-0.7,4.7-0.4,4.7-3.6 M407.2,316.6c2.4-0.2,4-1.4,4.3-4.4c-0.2-1.6-1.3-2.9-3.5-2.7 M545.3,259.2c-0.2,1.8,1,2.9,2.8,2.9
	c2,0,3.4-1,3.9-3.1"/>
<path id="XMLID_165_" class="st0" d="M532.6,202.7c-21.2-0.9-42.4,0.8-63.6,0.7c-17.4-0.1-34.7-2.4-52-3
	c-24.5-0.8-49.1-3.6-73.7-0.9c-6.6,0.7-13.3,1-19.8-0.2c-2.8-0.5-5.1-2.3-4.7-5.5c0.4-3.3,3.2-3.3,5.5-3c21.9,2.9,44-0.2,65.9,1.6
	c14.8,1.2,29.7,1,44.4,2.8c19.2,2.4,38.2-0.5,57.2,0c29.1,0.8,58.3,1.1,87.4-0.7c3-0.2,7.3-0.9,7,3.9c-0.2,4.2-3.6,5.5-7.5,5.2
	C563.4,202.4,548,202.8,532.6,202.7z"/>
</svg>
