<?xml version="1.0" encoding="utf-8"?>
<!-- Generator: Adobe Illustrator 19.0.0, SVG Export Plug-In . SVG Version: 6.00 Build 0)  -->
<svg version="1.1" id="Layer_1" xmlns="http://www.w3.org/2000/svg" xmlns:xlink="http://www.w3.org/1999/xlink" x="0px" y="0px"
	 viewBox="-240 114.8 113.4 113.4" style="enable-background:new -240 114.8 113.4 113.4;" xml:space="preserve">
<style type="text/css">
	.st0{fill:#FF2B00;}
</style>
<path class="st0" d="M-150.8,117.6h-65.1c-11.8,0-21.3,9.5-21.3,21.3v65.2c0,11.8,9.5,21.3,21.3,21.3h65.2
	c11.7,0,21.3-9.6,21.2-21.4v-65.1C-129.5,127.1-139,117.6-150.8,117.6z M-143.5,200c2.5,2.5,2.5,6.4,0,8.9l-3.1,3.1
	c-2.5,2.5-6.4,2.5-8.9,0l-28.2-28.2l-27.6,27.6c-2.5,2.5-6.4,2.5-8.9,0l-3.1-3.1c-2.5-2.5-2.5-6.4,0-8.9l27.6-27.6l-28.2-28.2
	c-2.5-2.5-2.5-6.4,0-8.9l3.1-3.1c2.5-2.5,6.4-2.5,8.9,0l28.2,28.2l28.9-28.9c2.5-2.5,6.4-2.5,8.9,0l3.1,3.1c2.5,2.5,2.5,6.4,0,8.9
	l-28.9,28.9L-143.5,200z"/>
</svg>
