<?xml version="1.0" encoding="utf-8"?>
<!-- Generator: Adobe Illustrator 19.0.0, SVG Export Plug-In . SVG Version: 6.00 Build 0)  -->
<svg version="1.1" id="Layer_1" xmlns="http://www.w3.org/2000/svg" xmlns:xlink="http://www.w3.org/1999/xlink" x="0px" y="0px"
	 viewBox="-368 240.9 113.4 113.4" style="enable-background:new -368 240.9 113.4 113.4;" xml:space="preserve">
<style type="text/css">
	.st0{fill:#27B200;}
</style>
<path class="st0" d="M-278.8,243.7h-65.1c-11.8,0-21.3,9.5-21.3,21.3v65.2c0,11.8,9.5,21.3,21.3,21.3h65.2
	c11.7,0,21.3-9.6,21.2-21.4V265C-257.5,253.2-267,243.7-278.8,243.7z M-276,301.1h-22.2v33.2c0,2.4-2,4.4-4.4,4.4h-8.7h-8.7
	c-2.4,0-4.4-2-4.4-4.4v-33.2h-22.2c-2.1,0-3.2-2.4-1.9-4l34-40.1c1.7-2,4.7-2,6.4,0l34,40.1C-272.8,298.7-273.9,301.1-276,301.1z"/>
</svg>
