<?xml version="1.0" encoding="utf-8"?>
<!-- Generator: Adobe Illustrator 19.0.0, SVG Export Plug-In . SVG Version: 6.00 Build 0)  -->
<svg version="1.1" id="Layer_1" xmlns="http://www.w3.org/2000/svg" xmlns:xlink="http://www.w3.org/1999/xlink" x="0px" y="0px"
	 viewBox="-146 0 559 595.3" style="enable-background:new -146 0 559 595.3;" xml:space="preserve">
<style type="text/css">
	.st0{fill:#6A5A40;}
</style>
<path class="st0" d="M167.7,515.7c0,15.9-12.4,28.4-28.4,28.4h-19.8c-15.9,0-28.4-12.4-28.4-28.4V335.9h-176
	c-15.9,0-28.4-12.4-28.4-28.4v-19.8c0-15.9,12.4-28.4,28.4-28.4h176V79.6c0-15.9,12.4-28.4,28.4-28.4h19.8
	c15.9,0,28.4,12.4,28.4,28.4v179.8H352c15.9,0,28.4,12.4,28.4,28.4v19.8c0,15.9-12.4,28.4-28.4,28.4H167.7V515.7z"/>
</svg>
