<?xml version="1.0" encoding="utf-8"?>
<!-- Generator: Adobe Illustrator 19.0.0, SVG Export Plug-In . SVG Version: 6.00 Build 0)  -->
<svg version="1.1" id="Layer_1" xmlns="http://www.w3.org/2000/svg" xmlns:xlink="http://www.w3.org/1999/xlink" x="0px" y="0px"
	 viewBox="0 0 1736 904" style="enable-background:new 0 0 1736 904;" xml:space="preserve">
<style type="text/css">
	.st0{fill:#C2A572;}
	.st1{fill:url(#XMLID_3_);}
	.st2{fill:url(#XMLID_166_);}
	.st3{fill:url(#XMLID_167_);}
	.st4{fill:url(#XMLID_168_);}
	.st5{fill:url(#XMLID_179_);}
	.st6{fill:url(#XMLID_180_);}
	.st7{fill:url(#XMLID_181_);}
	.st8{fill:url(#XMLID_182_);}
	.st9{fill:url(#XMLID_183_);}
	.st10{fill:url(#XMLID_184_);}
	.st11{fill:url(#XMLID_185_);}
	.st12{fill:url(#XMLID_186_);}
	.st13{fill:url(#XMLID_187_);}
	.st14{fill:url(#XMLID_188_);}
	.st15{fill:url(#XMLID_189_);}
	.st16{fill:url(#XMLID_190_);}
	.st17{fill:url(#XMLID_191_);}
	.st18{fill:url(#XMLID_192_);}
</style>
<g id="XMLID_4_">
	<g id="XMLID_1_">
		<g id="XMLID_295_">
			<g id="XMLID_296_">
				<path id="XMLID_306_" class="st0" d="M1512.6,409c-2.5,17-4.4,31.3-6.6,45.5c-1.4,9-3.1,18-5,26.9c-0.7,3-1.9,6.2-3.7,8.7
					c-1,1.4-4.1,2.6-5.6,2c-1.3-0.5-2.7-3.7-2.3-5.4c1-5.2,2.8-10.2,5-17.4c-13.8,6.1-26.1,7.4-38.9,5.5c-12.8-1.9-21-8.6-23.6-21.2
					c-1.5-7.1-2.5-14.4-2.7-21.6c-0.4-21-0.1-42-0.3-62.9c-0.1-13.1-7.5-20.5-20.1-20.6c-10.3-0.1-11.1,0.5-12,11.8
					c-2,23.2-3.9,46.3-5.9,69.5c-6.6,78.3-15.9,156.2-39.2,231.5c-11,35.7-23.9,70.8-36,106.1c-1.3,3.8-3.5,7.5-6,10.6
					c-1,1.3-4.5,1.9-5.9,1.1c-1.2-0.7-1.3-3.7-1.6-5.8c-0.1-0.8,0.7-1.6,1.1-2.4c30.5-57.9,45.7-120.9,59.6-184.2
					c12.9-58.9,17.1-119.1,22-179.1c1.3-15.9,2.4-31.8,3.5-47.7c0.7-9.5-0.2-10.5-9.6-8c-6.5,1.7-13.2,3.9-18.9,7.5
					c-16.9,10.7-16.6,11-11.6,30.6c6.5,25.4,4.5,50.7-2.3,75.7c-2.8,10.3-7.5,20.3-19.8,21.9c-11.7,1.5-21.8-2.8-28.6-12.5
					c-11.2-16-21.8-32.5-33.8-50.5c-2.4,3.4-5,6.6-6.9,10.2c-5.1,9.7-9.6,19.7-15,29.2c-1.8,3.1-6,7.1-8.7,6.8
					c-5.9-0.6-5.2-6.5-4.9-11c0.8-14.1,2-28.2,2.8-42.3c0.3-5-0.1-10-0.1-15c0-6.2-2.8-8.3-8.7-6c-26.8,10.2-54.3,15.3-83.1,12.4
					c-1.9-0.2-5.7,3.1-5.9,5.2c-4.4,33.3,3.7,51.4,32.5,62.6c17.8,6.9,36.3,8.3,55.1,5c3.1-0.6,6.3-1.7,9.4-1.6c1.8,0,3.6,2,5.4,3.1
					c-1.1,1.8-1.9,4-3.5,5.2c-1.7,1.3-4.2,1.8-6.4,2.2c-24.9,5-49,2.7-72-8.6c-20.2-10-30.3-26.1-31.8-48.9
					c-2.7-41.3,12-74.7,42.8-101.6c13.9-12.2,29.9-14.6,47.3-8.9c7.4,2.4,12.6,6.8,15.2,14.4c3.5,10.4,7.6,20.5,10.9,30.9
					c0.7,2-0.8,4.8-1.3,7.2c-2.5-1.3-6.3-2.1-7.3-4.1c-3.5-7.4-6.2-15.2-9-22.9c-6.5-17.9-23.5-24.8-40.1-15.3
					c-7,4-14,9.2-18.8,15.6c-8.7,11.6-16.5,23.9-23.1,36.8c-5.1,10-1.9,14.1,9.7,14.5c17.4,0.7,34.6-0.2,51.3-6
					c7.7-2.7,15.5-5.5,23.5-7.4c13.6-3.2,17.6-0.1,17.8,13.8c0.2,13.2,0.1,26.4,0.1,42.8c3.1-5.4,4.9-8.5,6.7-11.7
					c2.3-3.9,4-8.3,7-11.7c7.9-8.9,15.6-7.7,21.5,2.6c7.8,13.4,16,26.5,24.1,39.7c1.4,2.3,3.1,4.5,4.8,6.7
					c5.2,6.3,11.7,10.7,20.1,9.2c8-1.4,10.1-9,11.7-15.5c6.2-25.1,7.9-50.5,0.4-75.7c-5.8-19.4-15-37.1-28.1-52.8
					c-4.3-5.2-7.7-11.2-10.6-17.3c-0.9-2,1.1-5.4,1.8-8.1c2.2,1.2,5.1,1.8,6.4,3.7c9.9,14.7,19.8,29.4,29.1,44.5
					c3,4.9,5.7,5.3,9.5,1.6c9.9-9.6,22.1-14.4,35.4-16.6c7.9-1.3,9.8-5.7,10.6-13c3.8-36.3,7.6-72.6,12.8-108.7
					c5.8-40.3,16.2-79.5,33.7-116.5c4.3-9,9.5-17.7,15.3-25.8c9.7-13.3,23.5-18,39.7-16.2c43,5,70.3,29.6,85.9,68.7
					c2.7,6.8,4.6,13.9,6.2,21c0.5,2.1-1.1,4.8-1.8,7.2c-2.4-1.4-6-2.3-7-4.4c-2.5-5.3-3.6-11.3-5.7-16.8
					c-9.9-27.2-25.8-49.2-53.9-60.2c-1.3-0.5-2.5-1.2-3.8-1.5c-37.4-10.9-48.6-1.9-62,24c-19.5,37.7-30.9,78-37.4,119.6
					c-5.5,35.1-9.3,70.5-13.3,105.8c-1.5,13-2.4,14.4,11.7,14.6c16.7,0.2,27.7,12.3,27.8,28.8c0.2,22.8,0,45.6,0.4,68.4
					c0.4,26.9,8.7,31.8,37.2,28.4c11.6-1.4,17.6-10.9,20.7-21.2c2.4-8.2,2.8-17.1,4.2-25.6c0.8-5.3-1.3-7.7-6.7-7.5
					c-3.2,0.1-6.4,0.2-9.6-0.3c-5-0.7-8.6-3.2-8.7-8.8c-0.2-5.6,3.5-8.2,8.3-9.4c3.1-0.7,6.5-1.3,9.5-0.7
					c8.8,1.7,10.9-2.7,11.7-10.3c3.1-29,7.1-57.9,10-87c2.7-26.7,7.5-53.3,4.9-80.4c-0.2-2.2,2.8-4.7,4.3-7.1
					c1.7,2.4,4.6,4.6,4.9,7.2c1,9,2.1,18.3,1.2,27.2c-3.3,33.6-7.4,67.1-11.1,100.6c-0.4,4-0.5,8.1-0.9,14.3c5-3.7,8.3-6.6,12-8.7
					c8.6-4.9,17.9-7.6,27.2-2.3c6.3,3.6,7.9,16.3,4.3,26.7c-3.7,10.4-11.5,17.4-20.4,23.2c-5.2,3.4-10.8,6.3-16.7,9.7
					c28.2,32.7,55.2,65.2,83.6,96.5c17.4,19.2,38.4,33.6,65.3,37c1.3,0.2,2.9,0.3,3.9,1.1c1.3,1,3,2.8,2.7,3.9
					c-0.3,1.4-2.3,3.3-3.6,3.4c-4.5,0-9.1-0.2-13.5-1.2c-16.3-3.7-31.5-10.7-43.4-22.2c-19.3-18.6-37.7-38.3-55.8-58
					c-13.3-14.4-25.4-29.9-38.4-44.5C1523.3,416.6,1518.6,413.9,1512.6,409z M1515.6,396.7c12.1-3.2,22-8.5,29.9-16.8
					c3.6-3.8,6.8-8.7,8.2-13.7c1.1-3.8,0.5-10.3-2-12.3c-2.5-2-9.2-1.4-12.5,0.6C1524.6,363.9,1511.1,374.5,1515.6,396.7z"/>
				<radialGradient id="XMLID_3_" cx="159.7462" cy="386.8209" r="1504.3475" gradientUnits="userSpaceOnUse">
					<stop  offset="0" style="stop-color:#FFFFFF"/>
					<stop  offset="0.6487" style="stop-color:#D8C5A5"/>
					<stop  offset="1" style="stop-color:#C2A572"/>
				</radialGradient>
				<path id="XMLID_303_" class="st1" d="M946.7,503.4c-4.8,4.2-7.4,6.6-10.1,8.9c-18.6,16.3-39.5,17.2-61.4,8.6
					c-9.1-3.5-15.4-10.4-16.5-20.2c-1.1-9.4-1.5-19.1-0.7-28.5c1.9-24.5,4.9-48.9,6.8-73.4c0.5-5.7-1-11.8-2.4-17.4
					c-0.7-2.7-3.5-6.8-5.3-6.8c-3.1,0.1-6.9,2.3-8.8,4.8c-3,3.9-5.3,8.7-6.6,13.4c-10,34.6-19.6,69.2-29.3,103.9
					c-1,3.5-0.9,7.4-2.4,10.6c-1.2,2.4-4.1,4-6.3,5.9c-1.6-2.4-4.5-4.9-4.5-7.3c0.1-15-0.5-30.3,1.9-45c2.4-14.7,7.6-29,12.5-43.2
					c5.8-16.4,11.4-32.9,11.8-50.4c0.2-7.5-1.8-15.2-3.3-22.6c-1.5-7-6.5-8.1-12.7-6.3c-8.9,2.6-14.5,8.8-18.5,17
					c-11.4,23.2-17.4,47.9-21.2,73.3c-1.9,13.1-3.5,26.2-5.2,39.3c-0.3,2.3,0.1,4.9-0.9,6.7c-1.6,2.9-3.7,7.1-6.3,7.5
					c-5.2,1-6.7-3.8-7-8c-1.2-16.4-2-32.8-3-49.1c-1.3-21.1-4.6-23.2-24.2-16c-15.8,5.8-31.7,11.4-47.6,17c-2.1,0.7-4.4,1.2-6.6,1.2
					c-1.1,0-2.9-1.2-3.1-2.1c-0.3-1.5-0.1-3.9,1-4.8c2-1.7,4.6-2.8,7.1-3.8c15-5.4,30-10.8,45-16c4.3-1.5,8.6-2.9,13.1-3.8
					c15.8-3.2,21.6,1,24.4,17.2c0.6,3.4,1.2,6.8,2.2,12.1c4.8-18.2,8.5-34.5,13.5-50.3c3.1-9.9,7.5-19.6,12.3-28.8
					c5.9-11.2,15.7-17.5,28.5-18.5c10.3-0.8,14.6,1.3,17.7,11c2.7,8.5,3.7,17.6,5.1,26.5c0.5,3,0.1,6.2,2.2,10.9
					c1.8-2.5,3.1-5.6,5.3-7.5c12.1-9.9,26.3-6.1,29,9.1c2.4,13.7,2.9,28.1,2.1,42c-1,18.6-4.1,37.1-6.3,55.7
					c-0.2,1.4-0.2,2.7-0.2,4.1c0.3,11.2-2.9,24.1,9.6,30.6c13.9,7.3,29.2,9.2,43.2,0.6c17-10.4,28.4-24.7,28.6-46.5
					c0.2-29.6,1.9-59.2,3.1-88.8c0.2-4.5,0.5-9.4,2.5-13.3c1.6-3.1,5.5-6.8,8.6-6.9c3.2-0.2,8.2,2.7,9.6,5.6
					c2.6,5.1,3.9,11.3,4.2,17c1.9,34-0.6,67.4-15.7,98.9c-2.6,5.5-3.4,12.2-3.8,18.5c-2.6,48.4-7.9,96.3-19,143.5
					c-10.9,46.7-28.5,90.3-57.6,128.9c-36.8,48.8-86.2,74.5-146.3,80.9c-40,4.2-79.2,1.1-116.8-14.7
					c-78.7-33.1-131.1-90.4-158.4-171c-10.8-31.8-16.9-64.4-16-98c0.5-19.2,5.7-37,20.4-50.6c10.4-9.7,22.8-13.1,36.6-10.8
					c2.6,0.4,4.8,3.2,7.2,5c-2.6,1-5.3,3-7.7,2.8c-20.4-2.1-33,4.4-42.1,22.5c-6.3,12.5-8.8,26.2-8.1,39.8
					c4.3,85.5,34.1,159.6,102,214.1c71.2,57.1,151.3,71.1,238,40.8c43.7-15.3,74.3-46.6,98.6-84.9c25.1-39.6,38.6-83.6,46.6-129.2
					c5.4-30.9,8-62.3,11.7-93.6C947.2,516.6,946.7,511.6,946.7,503.4z M959.9,450.2c8.6-26,9.1-52.8,4.7-79.8
					C959.2,396.7,958.7,423.3,959.9,450.2z"/>
				<linearGradient id="XMLID_166_" gradientUnits="userSpaceOnUse" x1="163.5593" y1="291.3031" x2="1666.7096" y2="351.3091">
					<stop  offset="0" style="stop-color:#FFFFFF"/>
					<stop  offset="1.463878e-002" style="stop-color:#FDFCFB"/>
					<stop  offset="0.1701" style="stop-color:#EBE2D1"/>
					<stop  offset="0.329" style="stop-color:#DCCCAF"/>
					<stop  offset="0.4899" style="stop-color:#D1BB94"/>
					<stop  offset="0.6534" style="stop-color:#C9AF81"/>
					<stop  offset="0.8212" style="stop-color:#C4A776"/>
					<stop  offset="1" style="stop-color:#C2A572"/>
				</linearGradient>
				<path id="XMLID_302_" class="st2" d="M439.5,447.8c22.4-10.9,43.2-20.9,63.9-31c0.4,0.4,0.8,0.9,1.1,1.3c-2.1,1.7-4,3.9-6.4,5.1
					c-16.9,9-33.6,18.4-50.9,26.5c-8,3.8-12.5,8.4-12.1,17.4c0.1,3.2,0.1,6.6-1,9.5c-1.3,3.4-3.7,8.9-5.9,9
					c-5.7,0.3-4.7-5.3-4.8-9.3c-0.1-4.5,0-8.9,0-15.3c-6.6,2.3-12,4.2-17.3,6.2c-35.5,13.3-71.4,25.2-109.1,30.2
					c-33.1,4.4-66.4,7.5-99.2-1.4c-13.4-3.6-27-9-38.5-16.7c-19.2-12.8-28.7-32.5-31-55.5c-3.4-34.6,1.8-68.5,12.7-101.1
					c9.2-27.6,18.7-55.6,32.4-81.1c17.9-33.3,41.7-62.9,74.3-84c20.8-13.5,42.9-17.2,66.6-10.2c15.7,4.7,23.3,17.5,19.4,32.7
					c-1.1,4.2-5,9.2-8.9,10.7c-6.2,2.4-13.3,2.5-20.1,2.9c-1.5,0.1-3.7-2.2-4.6-3.9c-0.4-0.7,1.5-3.6,2.8-4
					c4.3-1.3,8.8-2.2,13.3-2.6c6.6-0.5,8.5-4.4,8-10.2c-0.7-7.9-4.1-14.1-12.2-16.4c-14.7-4.1-29.5-5.6-44,1.1
					c-32.1,14.8-55.2,39.4-74.2,68.3c-35.1,53.3-54.4,112.1-58.3,175.6c-1.9,32.1,6.7,60.9,37.7,77.8c14.6,7.9,30.6,11.5,47.1,13.1
					c35.3,3.5,70.3,1.1,104.5-7.6c30.4-7.7,60-18.3,90.1-27.4c8-2.4,12.1-7.1,12.5-15.5c0.5-10,1.8-20,2-30
					c1.2-67.6-2.7-134.8-9.8-202c-3.8-36.6-2.3-73.8-3.1-110.7c-0.1-2.7,0-6,1.5-7.9c1.9-2.4,5.4-3.6,8.2-5.3c0.7,2.6,1.8,5.2,2,7.8
					c0.1,2.7-1.1,5.4-1.1,8c0.1,43.3-0.8,86.6,4.4,129.8c6,49.8,8.1,100,7.3,150.2c-0.1,5.2,0.6,10.4,1,16.6
					c14.2-25.5,27.3-49.4,40.8-73.1c3.8-6.7,8.5-13,13.5-18.8c4.5-5.1,9.5-10,15.2-13.6c15.8-10.1,26.2-6.2,29.9,12.2
					c3.8,18.7,5.5,37.9,8.3,56.8c5.1,35.2,11.8,70.1,24.5,103.6c2.8,7.2,5.6,14.5,8.8,21.5c11.3,24.3,23.5,30.7,50.2,26.3
					c1.8-0.3,3.7-1.2,5.3-0.9c2,0.4,3.8,1.7,5.7,2.7c-1.3,2-2.2,5-4.1,5.9c-18.4,9.2-47.5,1.8-58.4-16.4
					c-7.9-13.2-14.1-27.6-19.3-42.1c-12.7-35.3-19.9-71.9-24.4-109.1c-1.7-14-3.3-28.1-5.7-42c-2.6-15-8.8-17.4-19.8-6.6
					c-9.3,9.1-17.3,19.9-24.4,30.9c-19.3,29.5-34.3,61.2-45,94.9c-1.1,3.5-1.9,7-2.6,10.6C438.5,442.4,439,443.8,439.5,447.8z"/>
				<path id="XMLID_301_" class="st0" d="M626.9,413.4c-0.9-25.3,1.3-50.1,14.1-72.8c17.7-31.4,45.7-44,80.8-36.3
					c12.5,2.7,17.3,12.4,21.9,22.4c0.6,1.4-0.5,4.9-1.8,5.5c-1.5,0.7-4.6,0-6-1.2c-2-1.7-3.3-4.4-4.4-6.8
					c-4.1-8.4-10.9-11-19.9-11.8c-33.6-3-52.5,10.3-65.1,40.5c-5.9,14-8.4,29.9-9.7,45.1c-2.3,27.8-1.4,55.6,12,81.4
					c8.9,17.1,23.4,24.8,41.6,26.9c10.9,1.2,20.7-1.2,29.1-9c2.2-2,7.7-3.9,8.9-2.8c4.3,4,0.2,7.8-2.8,9.9
					c-5.9,4-12.2,8.5-18.9,10.2c-24.8,6.1-51.6-5.6-64.8-27.5c-8.9-14.7-13.4-30.9-14.8-47.9C626.3,430.8,626.9,422.1,626.9,413.4z"
					/>
				<path id="XMLID_300_" class="st0" d="M1092.5,344.5c0,37.4,0.9,74.7-0.3,112c-0.7,22.2-4.5,44.3-7.5,66.3
					c-0.7,5.2-3.6,10.3-6.4,14.9c-0.9,1.5-4.5,1.4-6.9,2.1c-0.4-2-1.8-4.5-1.2-6.1c14.6-34.2,12.2-70.6,13-106.4
					c1.6-68.3,2.4-136.6,3.7-205c0.1-5.9,0.9-11.8,2.2-17.6c0.4-1.9,3.5-3.2,5.4-4.8c1.2,2.1,3.5,4.3,3.4,6.4
					c-0.1,16.9-0.5,33.7-1.1,50.5c-0.9,29.1-2.1,58.3-3.1,87.4C1093.4,344.4,1092.9,344.4,1092.5,344.5z"/>
				<path id="XMLID_299_" class="st0" d="M1297.3,112.9c13.2,2.5,25.6,4.8,38,7.4c2.6,0.5,5.1,2,7.4,3.5c3.3,2.1,8.7,4.2,5.5,9
					c-3,4.6-7.3,1.2-10.7-1.1c-12.8-8.4-27.1-10.1-41.9-9.2c-57.2,3.2-112.5,17.2-167.9,30.5c-37.2,8.9-74.4,18.1-111.5,27.4
					c-7.9,2-15.5,5.3-23.5,7.3c-2.5,0.6-5.5-1.1-8.3-1.8c1.6-2.3,2.7-5.8,4.9-6.7c6.6-2.9,13.6-5.4,20.6-7.1
					c64.8-15.1,129.4-30.8,194.4-44.7C1235,120.8,1266.4,117.6,1297.3,112.9z"/>
				<path id="XMLID_298_" class="st0" d="M806.7,482.1c-1.1,10.5-2.3,21-3.4,31.5"/>
				<path id="XMLID_297_" class="st0" d="M1497.9,463c2.4,9.4-1.4,17.7-4.8,26"/>
			</g>
		</g>
		<g id="XMLID_281_">
			<g id="XMLID_282_">
				
					<radialGradient id="XMLID_167_" cx="159.7462" cy="386.8209" r="1504.3475" fx="145.7615" fy="-1117.4617" gradientTransform="matrix(0.9992 3.988839e-002 -1.994419e-002 0.4996 7.842 187.1924)" gradientUnits="userSpaceOnUse">
					<stop  offset="0" style="stop-color:#FFFFFF"/>
					<stop  offset="0.6487" style="stop-color:#D8C5A5"/>
					<stop  offset="1" style="stop-color:#C2A572"/>
				</radialGradient>
				<path id="XMLID_292_" class="st3" d="M1512.6,409c-2.5,17-4.4,31.3-6.6,45.5c-1.4,9-3.1,18-5,26.9c-0.7,3-1.9,6.2-3.7,8.7
					c-1,1.4-4.1,2.6-5.6,2c-1.3-0.5-2.7-3.7-2.3-5.4c1-5.2,2.8-10.2,5-17.4c-13.8,6.1-26.1,7.4-38.9,5.5c-12.8-1.9-21-8.6-23.6-21.2
					c-1.5-7.1-2.5-14.4-2.7-21.6c-0.4-21-0.1-42-0.3-62.9c-0.1-13.1-7.5-20.5-20.1-20.6c-10.3-0.1-11.1,0.5-12,11.8
					c-2,23.2-3.9,46.3-5.9,69.5c-6.6,78.3-15.9,156.2-39.2,231.5c-11,35.7-23.9,70.8-36,106.1c-1.3,3.8-3.5,7.5-6,10.6
					c-1,1.3-4.5,1.9-5.9,1.1c-1.2-0.7-1.3-3.7-1.6-5.8c-0.1-0.8,0.7-1.6,1.1-2.4c30.5-57.9,45.7-120.9,59.6-184.2
					c12.9-58.9,17.1-119.1,22-179.1c1.3-15.9,2.4-31.8,3.5-47.7c0.7-9.5-0.2-10.5-9.6-8c-6.5,1.7-13.2,3.9-18.9,7.5
					c-16.9,10.7-16.6,11-11.6,30.6c6.5,25.4,4.5,50.7-2.3,75.7c-2.8,10.3-7.5,20.3-19.8,21.9c-11.7,1.5-21.8-2.8-28.6-12.5
					c-11.2-16-21.8-32.5-33.8-50.5c-2.4,3.4-5,6.6-6.9,10.2c-5.1,9.7-9.6,19.7-15,29.2c-1.8,3.1-6,7.1-8.7,6.8
					c-5.9-0.6-5.2-6.5-4.9-11c0.8-14.1,2-28.2,2.8-42.3c0.3-5-0.1-10-0.1-15c0-6.2-2.8-8.3-8.7-6c-26.8,10.2-54.3,15.3-83.1,12.4
					c-1.9-0.2-5.7,3.1-5.9,5.2c-4.4,33.3,3.7,51.4,32.5,62.6c17.8,6.9,36.3,8.3,55.1,5c3.1-0.6,6.3-1.7,9.4-1.6c1.8,0,3.6,2,5.4,3.1
					c-1.1,1.8-1.9,4-3.5,5.2c-1.7,1.3-4.2,1.8-6.4,2.2c-24.9,5-49,2.7-72-8.6c-20.2-10-30.3-26.1-31.8-48.9
					c-2.7-41.3,12-74.7,42.8-101.6c13.9-12.2,29.9-14.6,47.3-8.9c7.4,2.4,12.6,6.8,15.2,14.4c3.5,10.4,7.6,20.5,10.9,30.9
					c0.7,2-0.8,4.8-1.3,7.2c-2.5-1.3-6.3-2.1-7.3-4.1c-3.5-7.4-6.2-15.2-9-22.9c-6.5-17.9-23.5-24.8-40.1-15.3
					c-7,4-14,9.2-18.8,15.6c-8.7,11.6-16.5,23.9-23.1,36.8c-5.1,10-1.9,14.1,9.7,14.5c17.4,0.7,34.6-0.2,51.3-6
					c7.7-2.7,15.5-5.5,23.5-7.4c13.6-3.2,17.6-0.1,17.8,13.8c0.2,13.2,0.1,26.4,0.1,42.8c3.1-5.4,4.9-8.5,6.7-11.7
					c2.3-3.9,4-8.3,7-11.7c7.9-8.9,15.6-7.7,21.5,2.6c7.8,13.4,16,26.5,24.1,39.7c1.4,2.3,3.1,4.5,4.8,6.7
					c5.2,6.3,11.7,10.7,20.1,9.2c8-1.4,10.1-9,11.7-15.5c6.2-25.1,7.9-50.5,0.4-75.7c-5.8-19.4-15-37.1-28.1-52.8
					c-4.3-5.2-7.7-11.2-10.6-17.3c-0.9-2,1.1-5.4,1.8-8.1c2.2,1.2,5.1,1.8,6.4,3.7c9.9,14.7,19.8,29.4,29.1,44.5
					c3,4.9,5.7,5.3,9.5,1.6c9.9-9.6,22.1-14.4,35.4-16.6c7.9-1.3,9.8-5.7,10.6-13c3.8-36.3,7.6-72.6,12.8-108.7
					c5.8-40.3,16.2-79.5,33.7-116.5c4.3-9,9.5-17.7,15.3-25.8c9.7-13.3,23.5-18,39.7-16.2c43,5,70.3,29.6,85.9,68.7
					c2.7,6.8,4.6,13.9,6.2,21c0.5,2.1-1.1,4.8-1.8,7.2c-2.4-1.4-6-2.3-7-4.4c-2.5-5.3-3.6-11.3-5.7-16.8
					c-9.9-27.2-25.8-49.2-53.9-60.2c-1.3-0.5-2.5-1.2-3.8-1.5c-37.4-10.9-48.6-1.9-62,24c-19.5,37.7-30.9,78-37.4,119.6
					c-5.5,35.1-9.3,70.5-13.3,105.8c-1.5,13-2.4,14.4,11.7,14.6c16.7,0.2,27.7,12.3,27.8,28.8c0.2,22.8,0,45.6,0.4,68.4
					c0.4,26.9,8.7,31.8,37.2,28.4c11.6-1.4,17.6-10.9,20.7-21.2c2.4-8.2,2.8-17.1,4.2-25.6c0.8-5.3-1.3-7.7-6.7-7.5
					c-3.2,0.1-6.4,0.2-9.6-0.3c-5-0.7-8.6-3.2-8.7-8.8c-0.2-5.6,3.5-8.2,8.3-9.4c3.1-0.7,6.5-1.3,9.5-0.7
					c8.8,1.7,10.9-2.7,11.7-10.3c3.1-29,7.1-57.9,10-87c2.7-26.7,7.5-53.3,4.9-80.4c-0.2-2.2,2.8-4.7,4.3-7.1
					c1.7,2.4,4.6,4.6,4.9,7.2c1,9,2.1,18.3,1.2,27.2c-3.3,33.6-7.4,67.1-11.1,100.6c-0.4,4-0.5,8.1-0.9,14.3c5-3.7,8.3-6.6,12-8.7
					c8.6-4.9,17.9-7.6,27.2-2.3c6.3,3.6,7.9,16.3,4.3,26.7c-3.7,10.4-11.5,17.4-20.4,23.2c-5.2,3.4-10.8,6.3-16.7,9.7
					c28.2,32.7,55.2,65.2,83.6,96.5c17.4,19.2,38.4,33.6,65.3,37c1.3,0.2,2.9,0.3,3.9,1.1c1.3,1,3,2.8,2.7,3.9
					c-0.3,1.4-2.3,3.3-3.6,3.4c-4.5,0-9.1-0.2-13.5-1.2c-16.3-3.7-31.5-10.7-43.4-22.2c-19.3-18.6-37.7-38.3-55.8-58
					c-13.3-14.4-25.4-29.9-38.4-44.5C1523.3,416.6,1518.6,413.9,1512.6,409z M1515.6,396.7c12.1-3.2,22-8.5,29.9-16.8
					c3.6-3.8,6.8-8.7,8.2-13.7c1.1-3.8,0.5-10.3-2-12.3c-2.5-2-9.2-1.4-12.5,0.6C1524.6,363.9,1511.1,374.5,1515.6,396.7z"/>
				
					<radialGradient id="XMLID_168_" cx="159.7462" cy="386.8209" r="1504.3475" fx="145.7615" fy="-1117.4617" gradientTransform="matrix(0.9992 3.988839e-002 -1.994419e-002 0.4996 7.842 187.1924)" gradientUnits="userSpaceOnUse">
					<stop  offset="0" style="stop-color:#FFFFFF"/>
					<stop  offset="0.6487" style="stop-color:#D8C5A5"/>
					<stop  offset="1" style="stop-color:#C2A572"/>
				</radialGradient>
				<path id="XMLID_289_" class="st4" d="M946.7,503.4c-4.8,4.2-7.4,6.6-10.1,8.9c-18.6,16.3-39.5,17.2-61.4,8.6
					c-9.1-3.5-15.4-10.4-16.5-20.2c-1.1-9.4-1.5-19.1-0.7-28.5c1.9-24.5,4.9-48.9,6.8-73.4c0.5-5.7-1-11.8-2.4-17.4
					c-0.7-2.7-3.5-6.8-5.3-6.8c-3.1,0.1-6.9,2.3-8.8,4.8c-3,3.9-5.3,8.7-6.6,13.4c-10,34.6-19.6,69.2-29.3,103.9
					c-1,3.5-0.9,7.4-2.4,10.6c-1.2,2.4-4.1,4-6.3,5.9c-1.6-2.4-4.5-4.9-4.5-7.3c0.1-15-0.5-30.3,1.9-45c2.4-14.7,7.6-29,12.5-43.2
					c5.8-16.4,11.4-32.9,11.8-50.4c0.2-7.5-1.8-15.2-3.3-22.6c-1.5-7-6.5-8.1-12.7-6.3c-8.9,2.6-14.5,8.8-18.5,17
					c-11.4,23.2-17.4,47.9-21.2,73.3c-1.9,13.1-3.5,26.2-5.2,39.3c-0.3,2.3,0.1,4.9-0.9,6.7c-1.6,2.9-3.7,7.1-6.3,7.5
					c-5.2,1-6.7-3.8-7-8c-1.2-16.4-2-32.8-3-49.1c-1.3-21.1-4.6-23.2-24.2-16c-15.8,5.8-31.7,11.4-47.6,17c-2.1,0.7-4.4,1.2-6.6,1.2
					c-1.1,0-2.9-1.2-3.1-2.1c-0.3-1.5-0.1-3.9,1-4.8c2-1.7,4.6-2.8,7.1-3.8c15-5.4,30-10.8,45-16c4.3-1.5,8.6-2.9,13.1-3.8
					c15.8-3.2,21.6,1,24.4,17.2c0.6,3.4,1.2,6.8,2.2,12.1c4.8-18.2,8.5-34.5,13.5-50.3c3.1-9.9,7.5-19.6,12.3-28.8
					c5.9-11.2,15.7-17.5,28.5-18.5c10.3-0.8,14.6,1.3,17.7,11c2.7,8.5,3.7,17.6,5.1,26.5c0.5,3,0.1,6.2,2.2,10.9
					c1.8-2.5,3.1-5.6,5.3-7.5c12.1-9.9,26.3-6.1,29,9.1c2.4,13.7,2.9,28.1,2.1,42c-1,18.6-4.1,37.1-6.3,55.7
					c-0.2,1.4-0.2,2.7-0.2,4.1c0.3,11.2-2.9,24.1,9.6,30.6c13.9,7.3,29.2,9.2,43.2,0.6c17-10.4,28.4-24.7,28.6-46.5
					c0.2-29.6,1.9-59.2,3.1-88.8c0.2-4.5,0.5-9.4,2.5-13.3c1.6-3.1,5.5-6.8,8.6-6.9c3.2-0.2,8.2,2.7,9.6,5.6
					c2.6,5.1,3.9,11.3,4.2,17c1.9,34-0.6,67.4-15.7,98.9c-2.6,5.5-3.4,12.2-3.8,18.5c-2.6,48.4-7.9,96.3-19,143.5
					c-10.9,46.7-28.5,90.3-57.6,128.9c-36.8,48.8-86.2,74.5-146.3,80.9c-40,4.2-79.2,1.1-116.8-14.7
					c-78.7-33.1-131.1-90.4-158.4-171c-10.8-31.8-16.9-64.4-16-98c0.5-19.2,5.7-37,20.4-50.6c10.4-9.7,22.8-13.1,36.6-10.8
					c2.6,0.4,4.8,3.2,7.2,5c-2.6,1-5.3,3-7.7,2.8c-20.4-2.1-33,4.4-42.1,22.5c-6.3,12.5-8.8,26.2-8.1,39.8
					c4.3,85.5,34.1,159.6,102,214.1c71.2,57.1,151.3,71.1,238,40.8c43.7-15.3,74.3-46.6,98.6-84.9c25.1-39.6,38.6-83.6,46.6-129.2
					c5.4-30.9,8-62.3,11.7-93.6C947.2,516.6,946.7,511.6,946.7,503.4z M959.9,450.2c8.6-26,9.1-52.8,4.7-79.8
					C959.2,396.7,958.7,423.3,959.9,450.2z"/>
				
					<radialGradient id="XMLID_179_" cx="159.7462" cy="386.8209" r="1504.3475" fx="145.7615" fy="-1117.4617" gradientTransform="matrix(0.9992 3.988839e-002 -1.994419e-002 0.4996 7.842 187.1924)" gradientUnits="userSpaceOnUse">
					<stop  offset="0" style="stop-color:#FFFFFF"/>
					<stop  offset="0.6487" style="stop-color:#D8C5A5"/>
					<stop  offset="1" style="stop-color:#C2A572"/>
				</radialGradient>
				<path id="XMLID_288_" class="st5" d="M439.5,447.8c22.4-10.9,43.2-20.9,63.9-31c0.4,0.4,0.8,0.9,1.1,1.3c-2.1,1.7-4,3.9-6.4,5.1
					c-16.9,9-33.6,18.4-50.9,26.5c-8,3.8-12.5,8.4-12.1,17.4c0.1,3.2,0.1,6.6-1,9.5c-1.3,3.4-3.7,8.9-5.9,9
					c-5.7,0.3-4.7-5.3-4.8-9.3c-0.1-4.5,0-8.9,0-15.3c-6.6,2.3-12,4.2-17.3,6.2c-35.5,13.3-71.4,25.2-109.1,30.2
					c-33.1,4.4-66.4,7.5-99.2-1.4c-13.4-3.6-27-9-38.5-16.7c-19.2-12.8-28.7-32.5-31-55.5c-3.4-34.6,1.8-68.5,12.7-101.1
					c9.2-27.6,18.7-55.6,32.4-81.1c17.9-33.3,41.7-62.9,74.3-84c20.8-13.5,42.9-17.2,66.6-10.2c15.7,4.7,23.3,17.5,19.4,32.7
					c-1.1,4.2-5,9.2-8.9,10.7c-6.2,2.4-13.3,2.5-20.1,2.9c-1.5,0.1-3.7-2.2-4.6-3.9c-0.4-0.7,1.5-3.6,2.8-4
					c4.3-1.3,8.8-2.2,13.3-2.6c6.6-0.5,8.5-4.4,8-10.2c-0.7-7.9-4.1-14.1-12.2-16.4c-14.7-4.1-29.5-5.6-44,1.1
					c-32.1,14.8-55.2,39.4-74.2,68.3c-35.1,53.3-54.4,112.1-58.3,175.6c-1.9,32.1,6.7,60.9,37.7,77.8c14.6,7.9,30.6,11.5,47.1,13.1
					c35.3,3.5,70.3,1.1,104.5-7.6c30.4-7.7,60-18.3,90.1-27.4c8-2.4,12.1-7.1,12.5-15.5c0.5-10,1.8-20,2-30
					c1.2-67.6-2.7-134.8-9.8-202c-3.8-36.6-2.3-73.8-3.1-110.7c-0.1-2.7,0-6,1.5-7.9c1.9-2.4,5.4-3.6,8.2-5.3c0.7,2.6,1.8,5.2,2,7.8
					c0.1,2.7-1.1,5.4-1.1,8c0.1,43.3-0.8,86.6,4.4,129.8c6,49.8,8.1,100,7.3,150.2c-0.1,5.2,0.6,10.4,1,16.6
					c14.2-25.5,27.3-49.4,40.8-73.1c3.8-6.7,8.5-13,13.5-18.8c4.5-5.1,9.5-10,15.2-13.6c15.8-10.1,26.2-6.2,29.9,12.2
					c3.8,18.7,5.5,37.9,8.3,56.8c5.1,35.2,11.8,70.1,24.5,103.6c2.8,7.2,5.6,14.5,8.8,21.5c11.3,24.3,23.5,30.7,50.2,26.3
					c1.8-0.3,3.7-1.2,5.3-0.9c2,0.4,3.8,1.7,5.7,2.7c-1.3,2-2.2,5-4.1,5.9c-18.4,9.2-47.5,1.8-58.4-16.4
					c-7.9-13.2-14.1-27.6-19.3-42.1c-12.7-35.3-19.9-71.9-24.4-109.1c-1.7-14-3.3-28.1-5.7-42c-2.6-15-8.8-17.4-19.8-6.6
					c-9.3,9.1-17.3,19.9-24.4,30.9c-19.3,29.5-34.3,61.2-45,94.9c-1.1,3.5-1.9,7-2.6,10.6C438.5,442.4,439,443.8,439.5,447.8z"/>
				
					<radialGradient id="XMLID_180_" cx="159.7462" cy="386.8209" r="1504.3475" fx="145.7615" fy="-1117.4617" gradientTransform="matrix(0.9992 3.988839e-002 -1.994419e-002 0.4996 7.842 187.1924)" gradientUnits="userSpaceOnUse">
					<stop  offset="0" style="stop-color:#FFFFFF"/>
					<stop  offset="0.6487" style="stop-color:#D8C5A5"/>
					<stop  offset="1" style="stop-color:#C2A572"/>
				</radialGradient>
				<path id="XMLID_287_" class="st6" d="M626.9,413.4c-0.9-25.3,1.3-50.1,14.1-72.8c17.7-31.4,45.7-44,80.8-36.3
					c12.5,2.7,17.3,12.4,21.9,22.4c0.6,1.4-0.5,4.9-1.8,5.5c-1.5,0.7-4.6,0-6-1.2c-2-1.7-3.3-4.4-4.4-6.8
					c-4.1-8.4-10.9-11-19.9-11.8c-33.6-3-52.5,10.3-65.1,40.5c-5.9,14-8.4,29.9-9.7,45.1c-2.3,27.8-1.4,55.6,12,81.4
					c8.9,17.1,23.4,24.8,41.6,26.9c10.9,1.2,20.7-1.2,29.1-9c2.2-2,7.7-3.9,8.9-2.8c4.3,4,0.2,7.8-2.8,9.9
					c-5.9,4-12.2,8.5-18.9,10.2c-24.8,6.1-51.6-5.6-64.8-27.5c-8.9-14.7-13.4-30.9-14.8-47.9C626.3,430.8,626.9,422.1,626.9,413.4z"
					/>
				
					<radialGradient id="XMLID_181_" cx="159.7462" cy="386.8209" r="1504.3475" fx="145.7615" fy="-1117.4617" gradientTransform="matrix(0.9992 3.988839e-002 -1.994419e-002 0.4996 7.842 187.1924)" gradientUnits="userSpaceOnUse">
					<stop  offset="0" style="stop-color:#FFFFFF"/>
					<stop  offset="0.6487" style="stop-color:#D8C5A5"/>
					<stop  offset="1" style="stop-color:#C2A572"/>
				</radialGradient>
				<path id="XMLID_286_" class="st7" d="M1092.5,344.5c0,37.4,0.9,74.7-0.3,112c-0.7,22.2-4.5,44.3-7.5,66.3
					c-0.7,5.2-3.6,10.3-6.4,14.9c-0.9,1.5-4.5,1.4-6.9,2.1c-0.4-2-1.8-4.5-1.2-6.1c14.6-34.2,12.2-70.6,13-106.4
					c1.6-68.3,2.4-136.6,3.7-205c0.1-5.9,0.9-11.8,2.2-17.6c0.4-1.9,3.5-3.2,5.4-4.8c1.2,2.1,3.5,4.3,3.4,6.4
					c-0.1,16.9-0.5,33.7-1.1,50.5c-0.9,29.1-2.1,58.3-3.1,87.4C1093.4,344.4,1092.9,344.4,1092.5,344.5z"/>
				
					<radialGradient id="XMLID_182_" cx="159.7462" cy="386.8209" r="1504.3475" fx="145.7615" fy="-1117.4617" gradientTransform="matrix(0.9992 3.988839e-002 -1.994419e-002 0.4996 7.842 187.1924)" gradientUnits="userSpaceOnUse">
					<stop  offset="0" style="stop-color:#FFFFFF"/>
					<stop  offset="0.6487" style="stop-color:#D8C5A5"/>
					<stop  offset="1" style="stop-color:#C2A572"/>
				</radialGradient>
				<path id="XMLID_285_" class="st8" d="M1297.3,112.9c13.2,2.5,25.6,4.8,38,7.4c2.6,0.5,5.1,2,7.4,3.5c3.3,2.1,8.7,4.2,5.5,9
					c-3,4.6-7.3,1.2-10.7-1.1c-12.8-8.4-27.1-10.1-41.9-9.2c-57.2,3.2-112.5,17.2-167.9,30.5c-37.2,8.9-74.4,18.1-111.5,27.4
					c-7.9,2-15.5,5.3-23.5,7.3c-2.5,0.6-5.5-1.1-8.3-1.8c1.6-2.3,2.7-5.8,4.9-6.7c6.6-2.9,13.6-5.4,20.6-7.1
					c64.8-15.1,129.4-30.8,194.4-44.7C1235,120.8,1266.4,117.6,1297.3,112.9z"/>
				
					<radialGradient id="XMLID_183_" cx="159.7462" cy="386.8209" r="1504.3475" fx="145.7615" fy="-1117.4617" gradientTransform="matrix(0.9992 3.988839e-002 -1.994419e-002 0.4996 7.842 187.1924)" gradientUnits="userSpaceOnUse">
					<stop  offset="0" style="stop-color:#FFFFFF"/>
					<stop  offset="0.6487" style="stop-color:#D8C5A5"/>
					<stop  offset="1" style="stop-color:#C2A572"/>
				</radialGradient>
				<path id="XMLID_284_" class="st9" d="M806.7,482.1c-1.1,10.5-2.3,21-3.4,31.5"/>
				
					<radialGradient id="XMLID_184_" cx="159.7462" cy="386.8209" r="1504.3475" fx="145.7615" fy="-1117.4617" gradientTransform="matrix(0.9992 3.988839e-002 -1.994419e-002 0.4996 7.842 187.1924)" gradientUnits="userSpaceOnUse">
					<stop  offset="0" style="stop-color:#FFFFFF"/>
					<stop  offset="0.6487" style="stop-color:#D8C5A5"/>
					<stop  offset="1" style="stop-color:#C2A572"/>
				</radialGradient>
				<path id="XMLID_283_" class="st10" d="M1497.9,463c2.4,9.4-1.4,17.7-4.8,26"/>
			</g>
		</g>
	</g>
	<g id="XMLID_5_">
		<radialGradient id="XMLID_185_" cx="159.7462" cy="386.8209" r="1504.3475" gradientUnits="userSpaceOnUse">
			<stop  offset="0" style="stop-color:#FFFFFF"/>
			<stop  offset="0.6487" style="stop-color:#D8C5A5"/>
			<stop  offset="1" style="stop-color:#C2A572"/>
		</radialGradient>
		<path id="XMLID_6_" class="st11" d="M969.7,705.4c0-12,7.1-22.3,20.9-22.3c6.9,0,10.1,1.5,12.9,3.2l-0.9,9.1
			c-3.5-2.3-7-3.5-11.1-3.5c-6.9,0-10.8,5.5-10.8,13.5c0,8,4,13.5,10.8,13.5c4.1,0,7.6-1.2,11.1-3.5l0.9,9.1
			c-2.8,1.7-6,3.2-12.9,3.2C976.8,727.6,969.7,717.4,969.7,705.4z"/>
		<radialGradient id="XMLID_186_" cx="159.7462" cy="386.8209" r="1504.3475" gradientUnits="userSpaceOnUse">
			<stop  offset="0" style="stop-color:#FFFFFF"/>
			<stop  offset="0.6487" style="stop-color:#D8C5A5"/>
			<stop  offset="1" style="stop-color:#C2A572"/>
		</radialGradient>
		<path id="XMLID_8_" class="st12" d="M1019,707.6c1.2,8,7.1,11.3,12.8,11.3c4,0,9.7-1.6,13.2-3.5l0.5,9c-3.3,1.7-8.3,3.3-14.4,3.3
			c-15.6,0-23.3-10.2-23.3-22.3c0-11.9,7.4-22.3,20.6-22.3c10.8,0,18.9,7.3,18.9,18.7c0,1.9-0.3,3.8-0.7,5.8H1019z M1019.2,700.4
			h17.4c0-3.9-2-8.5-7.7-8.5C1023.3,691.9,1020.2,695.5,1019.2,700.4z"/>
		<radialGradient id="XMLID_187_" cx="159.7462" cy="386.8209" r="1504.3475" gradientUnits="userSpaceOnUse">
			<stop  offset="0" style="stop-color:#FFFFFF"/>
			<stop  offset="0.6487" style="stop-color:#D8C5A5"/>
			<stop  offset="1" style="stop-color:#C2A572"/>
		</radialGradient>
		<path id="XMLID_11_" class="st13" d="M1077.2,693.1h-4c-3.5,0-6.6,1.9-7.8,4.3v29.3h-10.7v-43h10l0.3,4.6
			c2.2-2.3,6.5-5.2,11.4-5.2h2.8L1077.2,693.1z"/>
		<radialGradient id="XMLID_188_" cx="159.7462" cy="386.8209" r="1504.3475" gradientUnits="userSpaceOnUse">
			<stop  offset="0" style="stop-color:#FFFFFF"/>
			<stop  offset="0.6487" style="stop-color:#D8C5A5"/>
			<stop  offset="1" style="stop-color:#C2A572"/>
		</radialGradient>
		<path id="XMLID_13_" class="st14" d="M1119.5,727.6h-3.9c-4.8,0-8-2-9.6-5c-2.8,3.2-8,5-13.2,5c-6.9,0-12.5-4.7-12.5-12.9
			c0-12.1,16.1-15.1,24.2-15.4c-0.3-4.9-2.2-7-7.7-7c-3.9,0-7.2,1-11.8,3.3l-0.9-8.7c5.2-2.5,10.3-3.8,15.6-3.8
			c9.6,0,15.6,4.8,15.6,17.3V712c0,6.4,0.7,6.9,3.8,6.9h1.4L1119.5,727.6z M1104.7,706.6c-6,0.3-13.1,2.7-13.1,7.7
			c0,3.5,1.7,5.2,5.8,5.2c1.9,0,5.1-0.9,7.3-3.1V706.6z"/>
		<radialGradient id="XMLID_189_" cx="159.7462" cy="386.8209" r="1504.3475" gradientUnits="userSpaceOnUse">
			<stop  offset="0" style="stop-color:#FFFFFF"/>
			<stop  offset="0.6487" style="stop-color:#D8C5A5"/>
			<stop  offset="1" style="stop-color:#C2A572"/>
		</radialGradient>
		<path id="XMLID_156_" class="st15" d="M1180.6,726.8v-23.1c0-7.9-2.1-11.8-8-11.8c-7,0-8.5,4-8.5,8.3v26.6h-10.6v-23.1
			c0-9.3-2.6-11.8-8.6-11.8c-3.4,0-6,1.3-7.9,3.5v31.4h-10.7v-43h8.8l0.6,3.4c2.5-2.1,6.4-4,11-4c5,0,10.1,2.1,13.2,6.5
			c1.5-2.8,6.5-6.5,14.3-6.5c11.6,0,17.1,8.5,17.1,20.5v23.1H1180.6z"/>
		<radialGradient id="XMLID_190_" cx="159.7462" cy="386.8209" r="1504.3475" gradientUnits="userSpaceOnUse">
			<stop  offset="0" style="stop-color:#FFFFFF"/>
			<stop  offset="0.6487" style="stop-color:#D8C5A5"/>
			<stop  offset="1" style="stop-color:#C2A572"/>
		</radialGradient>
		<path id="XMLID_159_" class="st16" d="M1200.8,677.2v-10.7h10.7v10.7H1200.8z M1200.8,726.8v-43h10.7v43H1200.8z"/>
		<radialGradient id="XMLID_191_" cx="159.7462" cy="386.8209" r="1504.3475" gradientUnits="userSpaceOnUse">
			<stop  offset="0" style="stop-color:#FFFFFF"/>
			<stop  offset="0.6487" style="stop-color:#D8C5A5"/>
			<stop  offset="1" style="stop-color:#C2A572"/>
		</radialGradient>
		<path id="XMLID_162_" class="st17" d="M1218.9,705.4c0-12,7.1-22.3,20.9-22.3c6.9,0,10.1,1.5,12.9,3.2l-0.9,9.1
			c-3.5-2.3-7-3.5-11.1-3.5c-6.9,0-10.8,5.5-10.8,13.5c0,8,4,13.5,10.8,13.5c4.1,0,7.6-1.2,11.1-3.5l0.9,9.1
			c-2.8,1.7-6,3.2-12.9,3.2C1226,727.6,1218.9,717.4,1218.9,705.4z"/>
		<radialGradient id="XMLID_192_" cx="159.7462" cy="386.8209" r="1504.3475" gradientUnits="userSpaceOnUse">
			<stop  offset="0" style="stop-color:#FFFFFF"/>
			<stop  offset="0.6487" style="stop-color:#D8C5A5"/>
			<stop  offset="1" style="stop-color:#C2A572"/>
		</radialGradient>
		<path id="XMLID_164_" class="st18" d="M1257.7,724.4l0.9-9.1c2.7,2.1,8.4,4.3,13.2,4.3c5.2,0,6.5-2.6,6.5-4.7
			c0-3.6-3.7-4.8-7.9-6.1c-6-1.8-12.4-3.8-12.4-12c0-6,3.6-13.7,15.7-13.7c5.6,0,11.2,1.6,13.5,3.2l-0.9,9.1
			c-2.1-2.1-7.1-4.6-11.8-4.6c-3.7,0-7.1,1.3-7.1,4.7c0,4.1,4.4,4.8,9.8,6.4c5.8,1.6,11.8,4.3,11.8,13.2c0,5.2-2.1,12.6-16.8,12.6
			C1265.5,727.6,1260.2,726.1,1257.7,724.4z"/>
	</g>
</g>
</svg>
