<?xml version="1.0" encoding="utf-8"?>
<!-- Generator: Adobe Illustrator 19.0.0, SVG Export Plug-In . SVG Version: 6.00 Build 0)  -->
<svg version="1.1" id="Layer_1" xmlns="http://www.w3.org/2000/svg" xmlns:xlink="http://www.w3.org/1999/xlink" x="0px" y="0px"
	 viewBox="0 0 559 595.3" style="enable-background:new 0 0 559 595.3;" xml:space="preserve">
<style type="text/css">
	.st0{fill:#1A1610;}
</style>
<path id="XMLID_27_" class="st0" d="M468.5,36.6h-378c-23.2,0-42,18.8-42,42v438c0,23.2,18.8,42,42,42h378c23.2,0,42-18.8,42-42
	v-438C510.5,55.4,491.7,36.6,468.5,36.6z M345.9,520.3c-6,2.8-12.5,4.3-19,4.3h-47.3h-47.3c-6.6,0-13.1-1.5-19-4.3
	c-30.9-14.7-125.8-67.1-124.3-155.7c1.9-105.8,122.4-179.3,120.3-213c-2.1-33.7-11.7-30.4-20.1-32.3c-11.9-2.6-14.4-5.1-14.4-11.6
	c0-6.6-1.1-16.8,3.7-27.1c4.2-8.9,58.4-9.9,101.1-9.9s96.9,1,101.1,9.9c4.9,10.3,3.7,20.6,3.7,27.1c0,6.6-2.5,9-14.4,11.6
	c-8.4,1.9-18-1.4-20.1,32.3c-2.1,33.7,118.4,107.2,120.3,213C471.7,453.2,376.8,505.6,345.9,520.3z"/>
</svg>
