<?xml version="1.0" encoding="utf-8"?>
<!-- Generator: Adobe Illustrator 19.0.0, SVG Export Plug-In . SVG Version: 6.00 Build 0)  -->
<svg version="1.1" id="Layer_1" xmlns="http://www.w3.org/2000/svg" xmlns:xlink="http://www.w3.org/1999/xlink" x="0px" y="0px"
	 viewBox="0 0 1275.6 595.3" style="enable-background:new 0 0 1275.6 595.3;" xml:space="preserve">
<style type="text/css">
	.st0{fill:#C3A674;}
</style>
<path id="XMLID_174_" class="st0" d="M977.1,127.3c25.5,7.9,39.9,32.2,63.5,43.1c44.7,20.7,92.2,28.8,141,30.5
	c8.9,0.3,17.8-0.1,26.7,0.5c11.5,0.8,26-2,30,12.9c4.4,16.6-12.2,17-21.2,23.5c-80.4,57.9-161,115.7-198.5,213.4
	c-7.1,18.6-11,38-11.2,58c-0.1,16.8-2.8,32.6-23.2,35.7c-22.6,3.5-52.7-13.3-57.2-31.6c-5.7-23.2-7.3-46.7-6.6-70.7
	c1.6-50.9-12.5-64.6-62.9-59.6c-95,9.3-190.3,11.8-285.5,17.3c-75.6,4.3-151.2,10.2-226.1,22.8c-10.5,1.8-21.5,0.2-33.7,0.2
	c8.5-9.8,22.5-0.3,31-14.4c-83.2,17.4-166,13.8-246.9,28.3c-22,4-32.3-7.7-29.2-25.3c6.6-36.9-0.3-70.6-14.5-104
	c-8.9-20.8-0.3-28.9,20.1-24.9c48.3,9.5,96,5.5,144.4-1.1c57.7-7.9,116.5-5.3,174.6-6.9c137.5-3.9,274.1-16.1,410.5-32.4
	c39.7-4.7,53.8-20.9,52.2-64.2c-1.3-35.5-6.2-70.9-10-106.3c-0.8-7.8-5.1-15.9,3.9-21.3c8-4.8,15.4-0.9,22.1,3.6
	C906,79,941.9,103.5,977.8,128c-30.2,10.1-50.5-9.3-72.4-24.2c-9.2-6.2-19.1-11.6-30.1-4.2c-7.3,4.9-11.9,14.2-8.5,20.6
	c17.9,34.1,1.9,73,16.7,107.3c3.7,8.6,5.2,20.8-6.6,21.6c-32.5,2.2-60.1,21.5-93.7,21.2c-78.9-0.6-156.2,19.2-235.2,20.8
	c-80.6,1.6-161,7.6-241.4,12.7c-63.6,4-127.7,4.3-191.6,8.1c-11.8,0.7-27.2,0-29.4,14.3c-4.7,30.4,5.9,60.5,12.7,89.1
	c3.4,14.3,24.2-14.2,40.3-7.6c2.5,1,5.8-0.3,8.8-0.4c81.9-3.9,164.2-3.9,245.5-12.9c77.7-8.6,155.4-15.2,233.3-19.8
	c82.7-4.9,166-0.1,247.9-17.4c8.5-1.8,17.9,0.4,24.2-8c6.6-8.9,9.2-24.1,25.8-18.2c15.9,5.6,13.5,20.8,15,32.7
	c4.5,37.2,7.4,74.6,11.7,111.8c1.3,11.1-1.4,28.8,12,30.5c16.6,2.1,16-17.6,19.3-28.4c7.1-23.5,13-46.7,23.8-69.5
	c27.8-58.7,80.3-94,123.3-138.2c11.2-11.5,32.9-18.9,27.3-38.5c-5.9-20.4-28.7-12.3-44-16.4c-20.7-5.6-49.6,1.8-61.5-13.1
	c-16.3-20.5-36.1-31.1-57.4-42C979.9,152.9,978.2,140.3,977.1,127.3z"/>
</svg>
