<?xml version="1.0" encoding="utf-8"?>
<!-- Generator: Adobe Illustrator 19.0.0, SVG Export Plug-In . SVG Version: 6.00 Build 0)  -->
<svg version="1.1" id="Layer_1" xmlns="http://www.w3.org/2000/svg" xmlns:xlink="http://www.w3.org/1999/xlink" x="0px" y="0px"
	 viewBox="0 0 1275.6 595.3" style="enable-background:new 0 0 1275.6 595.3;" xml:space="preserve">
<style type="text/css">
	.st0{fill:#C3A674;}
</style>
<path id="XMLID_175_" class="st0" d="M1145.6,313.1C1037.4,327,919.5,325.5,802,332.7c-52.6,3.2-106,2.5-158.5-2.7
	c-78.9-7.8-155,9.8-232.1,18.4c-30.6,3.4-40.8,20.9-37.3,52.5c3.8,34.5-1.9,69.7,3.9,104.5c2.6,15.4-5.2,25.8-22.3,23.3
	c-11.8-1.7-19.8-1.2-20.5,13.3c-0.5,9.3,3.5,22.7-10.5,24.3c-11.3,1.3-20.8-7-26.8-16.4c-16.7-26-34.7-51.5-48.2-79.2
	c-18.7-38.4-49.3-65.6-82.7-88.3c-38.4-26-78.3-50.7-123.1-65.5c-9.3-3.1-15.3-13-10.4-18c18-18.7,13.9-50.2,42.9-63.6
	c31.6-14.6,62.8-30.3,95-43.7c52.9-22,96.8-55,128.5-103.5c8.9-13.6,15.5-32.6,38.7-21.6c4,1.9,7.1-1.3,10.2-4.2
	c22-20.5,27.4-18.5,34.5,10.8c7,28.5,4.9,57.6,7,86.4c2.7,38.4,7.8,39.9,45,42.8c154.3,11.9,307.1-8.8,460.3-19.6
	c52.7-3.7,106,3.5,158.5-4.5c47.3-7.2,97.4-2.3,140.3-31.5c11.6-7.9,23.7-1.3,26.8,13.7c3.7,18.5,9.5,36.6,8.6,56
	c-0.8,17.9-0.7,36.2,2.3,53.8c7.8,44.4,8.5,44.2-38.5,43C1180.5,312.9,1167.6,313.1,1145.6,313.1z M1142.4,288.1c5,0,10,0,15,0
	c42.8,0.2,49.3-6.7,45.3-48.6c-4.8-50.9-8.4-53.4-62.4-44.3c-3,0.5-6,0.5-8.9,1.2c-71.8,16.7-145.1,1.8-217.4,11.3
	c-53.3,7-107.6,6.2-160.9,13.5c-17.1,2.3-27.5-18-41.9-7.7c-33.9,24.4-73.1,15.8-109.5,16.7c-65.6,1.5-131.5-4.5-196.9,4.4
	c-22.1,3-32-5.7-39.3-26.3c-10.8-30.5-3.7-61.5-7.7-91.9c-1.3-9.7-0.7-21.8-12.4-25c-11.2-3.1-13.6,9.5-19.5,15.5
	c-46.9,48-98.3,90-160.6,116.4c-23.2,9.8-44.9,20.5-64.4,36.8C63.6,291,63,290.3,103.1,313c6.9,3.9,12.9,9.9,20.2,12.7
	c72.7,27.9,118.5,83.9,157.2,147.9c8.8,14.5,19.3,27.8,29.4,41.4c3.6,4.9,8.2,9.2,15.1,6.9c6.8-2.3,7.8-8.7,8.3-14.6
	c4.1-47.6,9.6-95.2,11.6-142.9c1.7-42.3-0.1-42.3,41.1-39c5.8,0.5,11.9-0.4,17.6-1.8c80-18.9,162-21,243-18.9
	c92.8,2.3,185.4,1.3,278-1.4C997.5,301.2,1070,295,1142.4,288.1z"/>
</svg>
