<?xml version="1.0" encoding="utf-8"?>
<!-- Generator: Adobe Illustrator 19.0.0, SVG Export Plug-In . SVG Version: 6.00 Build 0)  -->
<svg version="1.1" id="Layer_1" xmlns="http://www.w3.org/2000/svg" xmlns:xlink="http://www.w3.org/1999/xlink" x="0px" y="0px"
	 viewBox="-66 37.3 521 760.3" style="enable-background:new -66 37.3 521 760.3;" xml:space="preserve">
<style type="text/css">
	.st0{fill:none;stroke:#826D51;stroke-width:58;stroke-miterlimit:10;}
	.st1{fill:#0C0602;}
</style>
<path class="st0" d="M264.1,720.4c-6,3.7-12.5,5.7-19,5.7h-47.3h-47.3c-6.6,0-13.1-2-19-5.7C100.6,700.7,5.7,630.7,7.2,512.3
	c1.9-141.4,122.4-212.6,120.3-257.7c-2.1-45-11.8-75.5-20.2-78c-11.9-3.5-14.3,1-14.3-7.7c0-8.8-1.1-22.5,3.7-36.2
	c4.2-11.9,58.4-13.2,101.1-13.2s96.9,1.3,101.1,13.2c4.9,13.8,3.7,27.5,3.7,36.2c0,8.8-2.6,4.2-14.5,7.7c-8.4,2.5-17.9,33-20,78
	s118.4,116.3,120.3,257.7C389.9,630.7,295,700.7,264.1,720.4z"/>
<path id="XMLID_27_" class="st1" d="M414.6,73.9H-23.2c-6.7,0-12.1,7.2-12.1,16.2v665.4c0,8.9,5.4,16.2,12.1,16.2h437.8
	c6.7,0,12.1-7.2,12.1-16.2V90C426.7,81.1,421.3,73.9,414.6,73.9z M262.1,720.4c-6,3.7-12.5,5.7-19,5.7h-47.3h-47.3
	c-6.6,0-13.1-2-19-5.7C98.6,700.7,3.7,630.7,5.2,512.3c1.9-141.4,122.4-212.6,120.3-257.7c-2.1-45-11.8-75.5-20.2-78
	c-11.9-3.5-14.3,1-14.3-7.7c0-8.8-1.1-22.5,3.7-36.2c4.2-11.9,58.4-13.2,101.1-13.2s96.9,1.3,101.1,13.2c4.9,13.8,3.7,27.5,3.7,36.2
	c0,8.8-2.6,4.2-14.5,7.7c-8.4,2.5-17.9,33-20,78s118.4,116.3,120.3,257.7C387.9,630.7,293,700.7,262.1,720.4z"/>
</svg>
