<?xml version="1.0" encoding="utf-8"?>
<!-- Generator: Adobe Illustrator 19.0.0, SVG Export Plug-In . SVG Version: 6.00 Build 0)  -->
<svg version="1.1" id="Layer_1" xmlns="http://www.w3.org/2000/svg" xmlns:xlink="http://www.w3.org/1999/xlink" x="0px" y="0px"
	 viewBox="-469 0 337 595.3" style="enable-background:new -469 0 337 595.3;" xml:space="preserve">
<style type="text/css">
	.st0{fill:#C1C1C1;}
</style>
<path id="XMLID_178_" class="st0" d="M-355.9,445.4c-24-0.1-27.2-4.5-22.8-27.2c1.9-10.1,3.2-20.5,2.9-30.7
	c-0.5-16.4,1.9-32.4,4.3-48.5c2.6-18.3,1.2-36.6-0.8-54.9c-1-9.7,0.6-15.3,12-12.4c5.8,1.5,11.4-0.7,16.8-2.4
	c32.6-10,63.4-23.9,92.7-41.4c9.9-5.9,14.8-15.3,15.7-26.5c1.7-20.9,4-41.7,1.6-62.7c-0.7-6.5-1.3-12.7-5.2-18.4
	c-13.4-19.7-29.2-24.1-53-13.6c-18.3,8.1-34.7,19-47.8,34.6c-12.1,14.6-29.8,24-38.5,41.9c-1.2,2.4-3,4.4-4.3,6.7
	c-9.7,17-9.7,16.9-28,11.7c-8.8-2.5-7.5-10.2-7.3-16.1c0.5-14.5,0.3-29-0.5-43.4c-0.3-4.5-0.1-10.1-2.6-13.3
	c-7.1-8.9-2.2-14.1,4.5-18.6c38.1-25.8,77.3-48.6,124.7-53.2c55.6-5.5,104.5,27.6,119.5,81.9c4.1,14.7,8.8,29.3,9.2,44.7
	c0.6,21.5-9.1,39.6-23.3,54.4c-15.8,16.4-33,31.6-56.2,37.8c-18.8,5.1-37.2,11.4-56,16.6c-8.6,2.4-12.1,7.2-10.7,15.8
	c2,12.4,3.2,25,6,37.2c3.1,13.5,4.8,26.8,5.5,40.7c0.5,10,4.4,20,7.2,29.8c3.9,13.8,1.8,18.3-11.7,21.7c-9.2,2.3-18.9,1.6-28.1,4.7
	C-338.8,445.4-348,446.1-355.9,445.4z M-312.5,276.1c3.5,3.4,5.6,2.3,7.8,1.6c20.4-6.3,40.8-12.4,61.1-19.1
	c26.9-8.9,45.8-27.4,59.3-51.8c9.3-16.7,6.4-33.8,2.3-51.2c-16.1-68.1-67-92.9-130-81.2c-30.6,5.7-56.8,22.7-82.9,38.8
	c-2.7,1.7-5.1,3.5-5.6,6.8c-3.3,19.3-4.1,38.7-1.7,58.1c0.2,1.7,1.3,4.1,2.6,4.7c2.8,1.2,3.9-1.7,4.8-3.6c2.6-6,5.7-11.4,10.7-16
	c12.3-11.3,24.6-22.8,36.2-34.9c16.4-17.1,35.2-30.4,57.5-38.2c36-12.5,65.1,2.5,69.7,38.8c3.4,27,7.6,54.6-0.4,82.2
	c-4.5,15.5-13.2,25.5-26.9,33.3C-268.7,256.4-289.8,266.7-312.5,276.1z M-343.5,429.5c7.6-0.3,17.3-3.9,27.2-6.9
	c9-2.8,11.5-9.2,8-16.9c-4-8.7-4.6-17.5-4.9-26.7c-0.3-7.6-1.1-15.4-3.4-22.5c-6.4-20.8-4.2-43.4-16.8-63.2
	c-4.1-6.4-4.2-8.3-11.5-6.6c-8.6,1.9-10,7.2-9.6,14.2c2.2,37.6-5.1,74.5-7.2,111.8C-362.5,426.6-360.6,429.6-343.5,429.5z"/>
<path id="XMLID_166_" class="st0" d="M-332.3,476.1c27.4-0.1,49.6,22.1,49.4,46.7c-0.2,14.2-11,27.2-24.9,30.2
	c-7.8,1.6-15.7,3-23.4,5.1c-4.4,1.2-8,0.6-11.9-1.6c-8.3-4.6-16.9-8.6-25.3-13.2c-8.4-4.6-13.6-10.9-10.4-21.4
	c3.6-11.8,2.3-25.9,14-33.9C-354.4,480.9-342.1,478.1-332.3,476.1z M-361.6,523.5c-0.5,3.2,2,7.4,7.6,10c10.5,4.9,20.8,8.9,33,6.1
	c8.9-2.1,19.4-1.5,21.7-13c2.2-11-2.1-19.3-13.3-23.3c-2-0.7-3.7-2.7-5.2-4.3c-10.1-10.3-21.5-6-31.9-1.6
	C-359.7,501.3-360.4,511.4-361.6,523.5z"/>
</svg>
